<svg width="12" height="20" viewBox="0 0 12 20" fill="none" xmlns="http://www.w3.org/2000/svg">
<path d="M8.42124 4.91151C8.44861 4.88069 8.57657 4.77998 9.07911 4.77998L10.7268 4.77937C11.2628 4.77937 11.6987 4.34419 11.6987 3.80921V0.935061C11.6987 0.401002 11.2634 -0.0341797 10.7283 -0.0350952L8.28089 -0.0390625C6.77037 -0.0390625 5.48628 0.458222 4.56743 1.39923C3.65271 2.33597 3.16913 3.64365 3.16913 5.18067V6.73082H1.29688C0.760861 6.73082 0.324829 7.166 0.324829 7.70097V10.7964C0.324829 11.3314 0.760861 11.7665 1.29688 11.7665H3.16913V18.9908C3.16913 19.5258 3.60516 19.961 4.14118 19.961H7.35027C7.88629 19.961 8.32232 19.5258 8.32232 18.9908V11.7667H10.6109C11.1469 11.7667 11.5828 11.3314 11.5828 10.7967L11.584 7.70113C11.584 7.34972 11.3924 7.02455 11.0839 6.85258C10.941 6.77293 10.7746 6.73082 10.6031 6.73082H8.32232V5.50615C8.32232 5.10697 8.37614 4.96247 8.42124 4.91151Z" fill="white"/>
</svg>
