<svg width="20" height="18" viewBox="0 0 20 18" fill="none" xmlns="http://www.w3.org/2000/svg">
<path d="M19.7205 2.65572C19.6427 2.5779 19.5502 2.51504 19.4494 2.4688C19.517 2.32552 19.5777 2.17934 19.6313 2.03027C19.7721 1.66619 19.6985 1.29159 19.4329 1.02593C19.1617 0.754936 18.7369 0.680931 18.3922 0.842674C17.6556 1.15838 16.9456 1.45699 16.3563 1.64986C15.6693 1.28121 14.5335 0.758446 13.6178 0.758446H13.6095C12.3545 0.776146 11.1782 1.29464 10.2973 2.21841C9.55696 2.99462 9.09828 3.9811 8.97483 5.04235C6.2101 4.43475 4.61098 3.54668 2.8257 1.67504L2.59987 1.44891C2.44316 1.29205 2.21917 1.21972 2.00005 1.25512C1.78124 1.29052 1.59142 1.42999 1.49193 1.6285L1.36788 1.87676C0.831686 2.90429 0.663229 3.95837 0.867391 5.01C0.940939 5.38949 1.06499 5.76684 1.23559 6.13427C1.07735 6.13793 0.919729 6.18096 0.774618 6.26428C0.428702 6.45135 0.239951 6.88546 0.324332 7.30767L0.329672 7.33407L0.337454 7.36001C0.586172 8.19482 1.0299 8.98415 1.63079 9.67797C1.52855 9.71047 1.43197 9.759 1.34652 9.82323C1.00014 10.0829 0.870443 10.5189 1.02074 10.9119C1.46767 12.1723 2.21886 13.043 3.30025 13.5461C2.6223 13.7435 1.87523 13.8453 1.02135 13.8601C0.606466 13.8625 0.223624 14.1256 0.0673741 14.5164L0.0556249 14.5486C-0.0731592 14.9346 0.0251074 15.328 0.324942 15.6281L0.34722 15.6504L0.371787 15.6701C1.63384 16.6868 4.27223 17.2698 7.61024 17.2698C13.4971 17.2698 18.3002 12.1217 18.42 5.74349C19.1373 5.2784 19.6795 4.53744 19.9619 3.62771L19.9708 3.59582C20.0545 3.26043 19.9563 2.89147 19.7205 2.65572Z" fill="white"/>
</svg>
