<svg width="44" height="51" viewBox="0 0 44 51" fill="none" xmlns="http://www.w3.org/2000/svg">
<path d="M43.4487 43.6327L40.2904 14.0664C40.2013 13.2518 39.3997 12.6298 38.4385 12.6298H32.8716V9.47233C32.8716 6.93375 31.7174 4.54988 29.6205 2.76592C27.5236 0.981965 24.7216 0 21.7378 0C15.5993 0 10.6039 4.24992 10.6039 9.47233V12.6298H5.03702C4.0758 12.6298 3.27417 13.2518 3.18881 14.0664L0.0305165 43.6327C-0.158758 45.3946 0.538961 47.1564 1.94182 48.4636C3.34468 49.7708 5.34135 50.5191 7.42337 50.5191H36.0558C38.1379 50.5191 40.1345 49.7708 41.5374 48.4636C42.9403 47.1564 43.6343 45.3946 43.4487 43.6327ZM14.3152 9.47233C14.3152 5.98967 17.6442 3.15744 21.7378 3.15744C23.7307 3.15744 25.5975 3.81103 26.9966 4.99823C28.3958 6.18543 29.1603 7.77678 29.1603 9.47233V12.6298H14.3152V9.47233ZM38.7948 46.3355C38.0822 46.9954 37.1098 47.3617 36.0521 47.3617H7.42337C6.36937 47.3617 5.39331 46.9954 4.68445 46.3323C3.97189 45.6693 3.63416 44.8136 3.73066 43.9169L6.73308 15.7872H10.6039V20.5234C10.6039 21.3948 11.4353 22.1021 12.4596 22.1021C13.4839 22.1021 14.3152 21.3948 14.3152 20.5234V15.7872H29.1603V20.5234C29.1603 21.3948 29.9916 22.1021 31.0159 22.1021C32.0402 22.1021 32.8716 21.3948 32.8716 20.5234V15.7872H36.7424L39.7486 43.92C39.845 44.8136 39.5073 45.6724 38.7948 46.3355Z" fill="white"/>
</svg>
