<svg width="49" height="51" viewBox="0 0 49 51" fill="none" xmlns="http://www.w3.org/2000/svg">
<path d="M43.4487 43.6327L40.2904 14.0664C40.2013 13.2518 39.3997 12.6298 38.4385 12.6298H32.8716V9.47233C32.8716 6.93375 31.7174 4.54988 29.6205 2.76592C27.5236 0.981965 24.7216 0 21.7378 0C15.5993 0 10.6039 4.24992 10.6039 9.47233V12.6298H5.03702C4.0758 12.6298 3.27417 13.2518 3.18881 14.0664L0.0305165 43.6327C-0.158758 45.3946 0.538961 47.1564 1.94182 48.4636C3.34468 49.7708 5.34135 50.5191 7.42337 50.5191H36.0558C38.1379 50.5191 40.1345 49.7708 41.5374 48.4636C42.9403 47.1564 43.6343 45.3946 43.4487 43.6327ZM14.3152 9.47233C14.3152 5.98967 17.6442 3.15744 21.7378 3.15744C23.7307 3.15744 25.5975 3.81103 26.9966 4.99823C28.3958 6.18543 29.1603 7.77678 29.1603 9.47233V12.6298H14.3152V9.47233ZM38.7948 46.3355C38.0822 46.9954 37.1098 47.3617 36.0521 47.3617H7.42337C6.36937 47.3617 5.39331 46.9954 4.68445 46.3323C3.97189 45.6693 3.63416 44.8136 3.73066 43.9169L6.73308 15.7872H10.6039V20.5234C10.6039 21.3948 11.4353 22.1021 12.4596 22.1021C13.4839 22.1021 14.3152 21.3948 14.3152 20.5234V15.7872H29.1603V20.5234C29.1603 21.3948 29.9916 22.1021 31.0159 22.1021C32.0402 22.1021 32.8716 21.3948 32.8716 20.5234V15.7872H36.7424L39.7486 43.92C39.845 44.8136 39.5073 45.6724 38.7948 46.3355Z" fill="white"/>
<circle cx="41.5" cy="14.0191" r="7.5" fill="#E59656"/>
<path d="M40.94 10.5871C40.82 10.5951 40.724 10.6151 40.652 10.6471C40.108 10.8551 39.68 11.3471 39.368 12.1231C39.072 12.8751 38.94 13.7191 38.972 14.6551C39.012 15.6231 39.212 16.4191 39.572 17.0431C39.964 17.7151 40.48 18.0711 41.12 18.1111C41.8 18.1591 42.356 17.8151 42.788 17.0791C43.196 16.3591 43.396 15.4671 43.388 14.4031C43.38 13.3311 43.148 12.4351 42.692 11.7151C42.252 11.0031 41.668 10.6271 40.94 10.5871ZM41.384 10.0831C42.128 10.2511 42.72 10.6951 43.16 11.4151C43.672 12.2231 43.932 13.2191 43.94 14.4031C43.948 15.5551 43.72 16.5391 43.256 17.3551C43.008 17.7871 42.7 18.1231 42.332 18.3631C41.964 18.5951 41.552 18.6951 41.096 18.6631C40.256 18.5991 39.592 18.1511 39.104 17.3191C38.688 16.6071 38.46 15.7311 38.42 14.6911C38.38 13.6751 38.524 12.7551 38.852 11.9311C39.228 11.0031 39.76 10.4031 40.448 10.1311C40.48 10.1231 40.52 10.1071 40.568 10.0831C40.624 10.0511 40.676 10.0351 40.724 10.0351H40.904C40.928 10.0351 40.956 10.0351 40.988 10.0351C41.028 10.0271 41.064 10.0231 41.096 10.0231C41.136 10.0231 41.164 10.0151 41.18 9.99909C41.228 9.99109 41.296 10.0191 41.384 10.0831Z" fill="white"/>
</svg>
