<svg width="80" height="56" viewBox="0 0 80 56" fill="none" xmlns="http://www.w3.org/2000/svg">
<path d="M29.6013 48.3445C30.2063 47.7395 30.9182 46.5856 31.3725 45.4731C32.0738 43.7565 32.0355 42.4923 31.2586 41.7155C29.5477 40.0042 25.5946 42.4078 24.6294 43.3726C23.2782 44.7237 23.2712 46.9859 24.6294 48.3442C25.9741 49.689 28.2561 49.704 29.6013 48.3445ZM26.2866 45.03C26.971 44.3454 28.7788 43.4845 29.5311 43.4426C29.4891 44.1951 28.6283 46.0029 27.944 46.6872V46.6873C27.6591 47.257 26.736 47.1364 26.2868 46.6872C25.836 46.2365 25.836 45.4808 26.2866 45.03ZM33.3138 17.8757C34.1642 19.5768 36.9335 19.2282 38.2856 17.8759C39.6403 16.521 39.6313 14.2495 38.2856 12.904C37.6806 12.2992 36.5267 11.5873 35.4144 11.1328C33.6978 10.4314 32.4336 10.4698 31.6566 11.2467C30.8797 12.0237 30.8413 13.2879 31.5427 15.0045C31.9971 16.117 32.7089 17.2709 33.3138 17.8757ZM36.6283 14.5612C37.078 15.0107 37.0792 15.7676 36.6283 16.2185C36.1778 16.669 35.2553 16.7866 34.9713 16.2185C34.9713 16.2184 34.9713 16.2184 34.9713 16.2184C34.2869 15.5342 33.426 13.7267 33.3839 12.9739C34.1366 13.016 35.9441 13.877 36.6283 14.5612ZM28.2918 30.3177C29.6624 28.9471 29.6624 26.7166 28.2918 25.3458C27.6868 24.741 26.533 24.0291 25.4205 23.5746C23.7041 22.8737 22.4398 22.9118 21.6627 23.6887C19.952 25.3996 22.3551 29.3527 23.3199 30.3177V30.3178C24.6908 31.6885 26.921 31.6885 28.2918 30.3177ZM23.3901 25.416C24.1427 25.4582 25.9502 26.3188 26.6344 27.003C27.0913 27.46 27.0913 28.2036 26.6344 28.6604C26.1777 29.1175 25.4343 29.1171 24.9772 28.6605C24.2929 27.9761 23.4319 26.1685 23.3901 25.416ZM54.1823 42.3344C52.4715 44.0453 54.8748 47.9984 55.8396 48.9634V48.9636C56.5249 49.6489 57.4253 49.9915 58.3256 49.9915C59.2259 49.9915 60.126 49.6489 60.8115 48.9634C61.4755 48.2993 61.8412 47.4167 61.8412 46.4776C61.8412 45.5384 61.4754 44.6558 60.8115 43.9919C59.8468 43.0267 55.8938 40.6234 54.1823 42.3344ZM59.1542 45.649C59.3756 45.8703 59.4974 46.1645 59.4974 46.4776C59.4974 46.7906 59.3756 47.085 59.1542 47.3062C58.6973 47.7631 57.9538 47.7629 57.497 47.3064C56.8126 46.6218 55.9517 44.8144 55.9096 44.0617C56.6623 44.1036 58.4698 44.9645 59.1542 45.649ZM62.8709 18.4949C64.2416 19.8655 66.4719 19.8655 67.8427 18.4948C69.1972 17.1402 69.1877 14.8685 67.8427 13.5232C66.8779 12.5581 62.9249 10.1548 61.2135 11.8659C59.5027 13.5767 61.906 17.5298 62.8709 18.4949ZM66.1854 15.1804C66.6346 15.6298 66.6362 16.3867 66.1854 16.8374C65.7285 17.2943 64.9851 17.2941 64.5282 16.8376C63.8438 16.1531 62.9829 14.3456 62.9409 13.5929C63.6935 13.6349 65.501 14.4959 66.1854 15.1804ZM71.2922 32.5574C72.2572 31.5922 74.6605 27.6391 72.9496 25.928C71.2385 24.2174 67.2855 26.6208 66.3205 27.5854C64.9687 28.9368 64.9618 31.1988 66.3205 32.5572C67.6913 33.9278 69.9215 33.928 71.2922 32.5574ZM67.9779 29.2427C68.6621 28.5583 70.4697 27.6974 71.2224 27.6555C71.1802 28.408 70.3194 30.2157 69.635 30.9002V30.9C69.1782 31.3572 68.4347 31.3569 67.9779 30.9002C67.5268 30.4493 67.5269 29.6936 67.9779 29.2427ZM8.63856 19.3163C7.287 20.6674 7.27997 22.9299 8.63856 24.2882C10.0093 25.6588 12.2395 25.6588 13.6104 24.2882V24.288C14.5753 23.323 16.9784 19.3698 15.2676 17.6588C13.5567 15.9481 9.60356 18.3516 8.63856 19.3163ZM11.9531 22.631C11.4962 23.0879 10.7528 23.0877 10.2959 22.631C9.84496 22.1802 9.84512 21.4244 10.2959 20.9737C10.9801 20.2893 12.7878 19.4284 13.5404 19.3865C13.4982 20.1388 12.6375 21.9465 11.9531 22.631ZM76.6692 14.8332C76.3619 14.2635 75.651 14.0506 75.0814 14.3584C74.5119 14.6657 74.2992 15.3767 74.6066 15.9462C77.6985 21.6765 78.4699 28.2971 76.7789 34.5885C75.6667 38.7266 73.5775 42.4337 70.7086 45.4573L69.8663 42.9205C69.5758 42.0456 68.871 41.3806 67.981 41.1414L65.3083 40.423C65.2074 40.3958 65.123 40.3311 65.071 40.2405L63.3385 37.227C63.016 36.6658 62.2996 36.4724 61.7385 36.7952C61.1774 37.1177 60.9841 37.8341 61.3066 38.3952L63.0391 41.4086C63.4037 42.0426 63.9935 42.4964 64.6999 42.6864L67.3727 43.4048C67.4997 43.439 67.6005 43.5339 67.6421 43.6589L68.8316 47.2414C67.6344 48.2681 66.3338 49.1918 64.9376 49.9967C59.062 53.3834 52.2192 54.2792 45.669 52.5184C44.595 52.2303 43.5433 51.8717 42.523 51.4496C45.9272 49.2948 48.8336 46.4211 51.0239 43.0415C51.0968 42.9569 51.1559 42.8631 51.2012 42.7636C53.9026 38.4852 55.4685 33.4217 55.4685 27.9988C55.4685 18.1401 50.297 9.46746 42.5251 4.5481C45.4414 3.33451 48.5368 2.68436 51.6615 2.61249L51.9376 5.32451C52.0228 6.16075 52.4778 6.89966 53.186 7.352L55.5248 8.84606C55.6395 8.91934 55.7085 9.04934 55.7049 9.18527L55.6585 10.9601C55.6417 11.6071 56.1524 12.1453 56.7993 12.1621C56.8098 12.1624 56.8201 12.1626 56.8306 12.1626C57.4635 12.1626 57.9848 11.6579 58.0015 11.0214L58.0479 9.24637C58.0727 8.29372 57.5892 7.38341 56.7863 6.87075L54.4476 5.37685C54.3465 5.31216 54.2815 5.20654 54.2693 5.08716L54.0231 2.66842C55.6409 2.78249 57.2565 3.05108 58.849 3.47905C63.8968 4.83513 68.3354 7.65903 71.685 11.6457C72.1032 12.1434 72.843 12.2034 73.3361 11.789C73.8316 11.3726 73.8958 10.6334 73.4794 10.1379C69.8194 5.78216 64.9704 2.69686 59.4571 1.21562C52.9859 -0.52297 46.0178 0.151403 39.9963 3.12748C36.2969 1.29609 32.1339 0.264526 27.7341 0.264526C12.7076 0.264526 0 12.4874 0 27.9988C0 40.8781 9.32575 52.5154 22.0743 55.1548C22.7082 55.286 23.3282 54.879 23.4598 54.2454C23.5913 53.6118 23.184 52.9914 22.5502 52.8599C17.3802 51.7878 12.6368 49.082 9.04918 45.1878L11.9079 42.9044C11.9831 42.8442 12.0775 42.8137 12.1734 42.8198L14.7273 42.9641C15.6242 43.0153 16.4924 42.6198 17.0435 41.9076L19.3631 38.9113C19.7593 38.3995 19.6656 37.6634 19.1537 37.2674C18.6418 36.8713 17.9059 36.9649 17.5098 37.4767L15.1903 40.4733C15.1115 40.5748 14.9868 40.6326 14.8595 40.6241L12.3056 40.4798C11.6315 40.4408 10.9714 40.6526 10.4451 41.0734L7.54216 43.3919C4.1842 38.9886 2.34374 33.5596 2.34374 27.9988C2.34374 16.4859 10.0468 6.73966 20.5691 3.63936L21.539 6.18482C21.838 6.97028 22.4693 7.56606 23.2708 7.81919L25.9171 8.65481C26.0469 8.69574 26.1472 8.8034 26.1791 8.9359L26.5949 10.662C26.7466 11.2967 27.3927 11.675 28.0086 11.5267C28.6379 11.3751 29.025 10.7421 28.8735 10.1129L28.4577 8.387C28.2346 7.46044 27.5316 6.70669 26.6227 6.41966L23.9765 5.58404C23.8621 5.5481 23.7718 5.46294 23.7291 5.3506L22.8637 3.07889C24.4405 2.77124 26.0686 2.60827 27.7341 2.60827C41.7345 2.60827 53.1246 13.9984 53.1246 27.9988C53.1246 32.3599 52.019 36.4675 50.074 40.0567L48.6112 37.8392C48.1037 37.0699 47.2504 36.6106 46.3287 36.6106H43.5611C43.4581 36.6106 43.3573 36.5688 43.2845 36.4959L40.8292 34.0355C40.372 33.5775 39.63 33.5764 39.1719 34.0338C38.7138 34.491 38.713 35.2328 39.1702 35.6909L41.6255 38.1514C42.1422 38.6691 42.8295 38.9544 43.5609 38.9544H46.3286C46.4603 38.9544 46.5822 39.02 46.6547 39.1298L48.7248 42.268C44.1503 48.9761 36.4481 53.3893 27.734 53.3893C27.0868 53.3893 26.5621 53.9138 26.5621 54.5612C26.5621 55.2085 27.0868 55.7331 27.734 55.7331C32.1307 55.7331 36.2897 54.7017 39.9869 52.8728C41.6009 53.6684 43.3047 54.3107 45.0609 54.782C47.4631 55.4276 49.8757 55.7357 52.2525 55.7356C64.4291 55.734 75.8203 47.1837 79.042 35.1967C80.8894 28.3247 80.0466 21.0929 76.6692 14.8332ZM45.8039 30.3178C46.7689 29.3527 49.172 25.3996 47.4611 23.6885C45.75 21.9776 41.797 24.381 40.8319 25.3458C39.4613 26.7165 39.4613 28.9469 40.8319 30.3177C42.2027 31.6886 44.433 31.6885 45.8039 30.3178ZM42.4892 27.0032C43.1736 26.3188 44.9812 25.4579 45.7337 25.416C45.6917 26.1685 44.8309 27.9761 44.1464 28.6607C43.6897 29.1175 42.9461 29.1174 42.4892 28.6607C42.0323 28.2036 42.0323 27.46 42.4892 27.0032Z" fill="#E59656"/>
</svg>
