<svg width="76" height="80" viewBox="0 0 76 80" fill="none" xmlns="http://www.w3.org/2000/svg">
<path d="M34.4844 56.1292V71.1364C34.4844 73.075 36.0614 74.652 38 74.652C39.9386 74.652 41.5156 73.075 41.5156 71.1364V56.1292C41.5156 54.1906 39.9386 52.6136 38 52.6136C36.0614 52.6136 34.4844 54.1906 34.4844 56.1292ZM39.1719 56.1292V71.1364C39.1719 71.7827 38.6462 72.3083 38 72.3083C37.3537 72.3083 36.8281 71.7827 36.8281 71.1364V56.1292C36.8281 55.483 37.3537 54.9573 38 54.9573C38.6462 54.9573 39.1719 55.483 39.1719 56.1292ZM52.6051 52.6558C50.7083 52.3595 48.8761 53.6939 48.5889 55.5869L46.2451 70.5941C45.9401 72.4733 47.279 74.3138 49.1761 74.61C51.0758 74.9067 52.9023 73.5972 53.1922 71.6789L55.5359 56.6717C55.8414 54.7738 54.4872 52.9497 52.6051 52.6558ZM53.2203 56.31L50.8765 71.3172C50.7778 71.9486 50.168 72.3928 49.538 72.2942C48.9081 72.1956 48.4595 71.585 48.5609 70.9556L50.9047 55.9484C50.9894 55.3855 51.4933 54.9572 52.0601 54.9572C52.7603 54.9572 53.3361 55.6095 53.2203 56.31ZM68.5439 27.5031C68.4025 27.4448 68.3089 27.325 68.2934 27.1823C67.4967 19.7544 63.9925 12.8923 58.4261 7.86031C52.8189 2.79156 45.5648 0 38 0C31.0842 0 24.3119 2.38078 18.9309 6.70359C18.4264 7.10891 18.3459 7.84656 18.7512 8.35109C19.1567 8.85547 19.894 8.93625 20.3987 8.53063C25.4372 4.48313 31.5236 2.34375 38 2.34375C44.9828 2.34375 51.6787 4.92031 56.8544 9.59906C61.9931 14.2444 65.228 20.5778 65.9631 27.4323C66.0698 28.4278 66.7167 29.2853 67.6512 29.6703C71.1437 31.1092 73.4173 34.6156 73.3087 38.3953C73.2414 40.7369 72.2759 42.9447 70.5903 44.6122C68.9047 46.2795 66.6861 47.2214 64.3434 47.2642C61.6256 47.3136 59.0401 46.1611 57.2587 44.1014C56.7353 43.4961 55.977 43.1491 55.178 43.1491C54.3892 43.1491 53.6428 43.4905 53.1306 44.0853C51.3906 46.1064 48.8658 47.2656 46.2031 47.2656C43.8462 47.2656 41.6083 46.3702 39.9016 44.7439C38.8351 43.7277 37.1645 43.728 36.0986 44.7439C34.3917 46.3702 32.1537 47.2656 29.7969 47.2656C27.1342 47.2656 24.6094 46.1064 22.8697 44.0853C21.7978 42.84 19.8072 42.8692 18.7417 44.1014C16.9605 46.1612 14.3828 47.3145 11.6569 47.2642C9.3142 47.2214 7.09561 46.2795 5.40999 44.6122C3.7242 42.9447 2.75874 40.7369 2.69155 38.3953C2.58295 34.6155 4.85639 31.1091 8.34889 29.6702C9.28342 29.2852 9.9303 28.4277 10.037 27.4323C10.638 21.8298 12.889 16.5903 16.547 12.2803C16.9658 11.7869 16.9053 11.0473 16.4119 10.6286C15.9184 10.2098 15.1789 10.2705 14.7601 10.7638C10.797 15.4333 8.35795 21.1108 7.7067 27.1825C7.69139 27.325 7.5978 27.4448 7.45624 27.5031C3.06858 29.3108 0.212329 33.7152 0.348736 38.4627C0.433423 41.4094 1.64561 44.1852 3.76186 46.2784C5.43827 47.9367 7.53764 49.0205 9.80327 49.427L14.9005 75.2734C15.44 78.0122 17.8575 80 20.6487 80H55.3519C58.143 80 60.5605 78.0122 61.1001 75.2736L63.1956 64.6484C63.3208 64.0134 62.9076 63.3972 62.2726 63.2719C61.6372 63.1466 61.0214 63.56 60.8961 64.1948L58.8006 74.8202C58.4764 76.4636 57.0261 77.6562 55.3515 77.6562H20.6484C18.9739 77.6562 17.5234 76.4636 17.1997 74.8202L12.2265 49.6023C15.4186 49.4934 18.4109 48.0667 20.5144 45.6342C20.6898 45.4312 20.9325 45.4272 21.0934 45.6141C23.2787 48.1531 26.4512 49.6092 29.797 49.6092C32.7587 49.6092 35.5708 48.4839 37.7155 46.4406C37.8778 46.2859 38.1225 46.2859 38.285 46.4406C40.4295 48.4839 43.2417 49.6092 46.2033 49.6092C49.549 49.6092 52.7214 48.153 54.9069 45.6141C54.9934 45.5134 55.1094 45.4952 55.1778 45.4925C55.2473 45.4925 55.3794 45.5109 55.4858 45.6341C57.5892 48.0664 60.583 49.4933 63.7736 49.6022L61.9767 58.7136C61.8515 59.3486 62.2647 59.9648 62.8997 60.0902C63.519 60.2123 64.1514 59.8083 64.2762 59.1672L66.1972 49.4269C68.4628 49.0202 70.5622 47.9364 72.2386 46.2783C74.3547 44.1852 75.5669 41.4094 75.6517 38.4625C75.7878 33.7152 72.9315 29.3108 68.5439 27.5031ZM46.4244 20.3406C49.1311 20.3406 51.3331 18.1386 51.3331 15.4319C51.3331 12.7252 49.1311 10.5231 46.4244 10.5231C43.7176 10.5231 41.5156 12.7252 41.5156 15.4319C41.5156 18.1386 43.7176 20.3406 46.4244 20.3406ZM46.4244 12.8669C47.8387 12.8669 48.9894 14.0175 48.9894 15.4319C48.9894 16.8463 47.8387 17.9969 46.4244 17.9969C45.01 17.9969 43.8594 16.8461 43.8594 15.4319C43.8594 14.0177 45.01 12.8669 46.4244 12.8669ZM29.8787 10.5231C27.172 10.5231 24.97 12.7252 24.97 15.4319C24.97 18.1386 27.172 20.3406 29.8787 20.3406C32.5855 20.3406 34.7875 18.1386 34.7875 15.4319C34.7875 12.7252 32.5855 10.5231 29.8787 10.5231ZM29.8787 17.9969C28.4644 17.9969 27.3137 16.8463 27.3137 15.4319C27.3137 14.0175 28.4644 12.8669 29.8787 12.8669C31.2931 12.8669 32.4437 14.0175 32.4437 15.4319C32.4437 16.8463 31.2931 17.9969 29.8787 17.9969ZM57.2656 35.6594C59.9723 35.6594 62.1744 33.4573 62.1744 30.7506C62.1744 28.0439 59.9723 25.8419 57.2656 25.8419C54.5589 25.8419 52.3569 28.0439 52.3569 30.7506C52.3569 33.4573 54.5589 35.6594 57.2656 35.6594ZM57.2656 28.1856C58.68 28.1856 59.8306 29.3363 59.8306 30.7506C59.8306 32.165 58.68 33.3156 57.2656 33.3156C55.8512 33.3156 54.7006 32.165 54.7006 30.7506C54.7006 29.3363 55.8512 28.1856 57.2656 28.1856ZM13.8256 30.7506C13.8256 33.4573 16.0276 35.6594 18.7344 35.6594C21.4411 35.6594 23.6431 33.4573 23.6431 30.7506C23.6431 28.0439 21.4411 25.8419 18.7344 25.8419C16.0276 25.8419 13.8256 28.0439 13.8256 30.7506ZM18.7344 28.1856C20.1487 28.1856 21.2994 29.3363 21.2994 30.7506C21.2994 32.165 20.1487 33.3156 18.7344 33.3156C17.32 33.3156 16.1694 32.165 16.1694 30.7506C16.1694 29.3363 17.32 28.1856 18.7344 28.1856ZM38 30.0811C35.2933 30.0811 33.0912 32.2831 33.0912 34.9898C33.0912 37.6966 35.2933 39.8984 38 39.8984C40.7067 39.8984 42.9087 37.6964 42.9087 34.9897C42.9087 32.283 40.7067 30.0811 38 30.0811ZM38 37.5547C36.5856 37.5547 35.435 36.4041 35.435 34.9897C35.435 33.5753 36.5856 32.4247 38 32.4247C39.4144 32.4247 40.565 33.5753 40.565 34.9897C40.565 36.4041 39.4144 37.5547 38 37.5547ZM23.395 52.6558C21.4961 52.9523 20.1601 54.7783 20.4639 56.6717L22.8076 71.6789C23.0767 73.4019 24.5362 74.6523 26.2783 74.6523C28.384 74.6523 30.094 72.6795 29.7547 70.5939L27.4109 55.5867C27.124 53.6884 25.2811 52.3613 23.395 52.6558ZM26.2783 72.3086C25.7081 72.3086 25.2115 71.8823 25.1233 71.3172L22.7795 56.31C22.6778 55.68 23.1267 55.0703 23.7567 54.9714C24.3792 54.8736 25.0011 55.3166 25.0951 55.9484L27.4389 70.9556C27.5517 71.6495 26.9825 72.3086 26.2783 72.3086Z" fill="#E59656"/>
</svg>
