<svg width="80" height="80" viewBox="0 0 80 80" fill="none" xmlns="http://www.w3.org/2000/svg">
<path d="M37.4837 10.9094C37.4837 12.4485 38.0831 13.8955 39.1714 14.9838C39.6291 15.4416 40.3711 15.4415 40.8287 14.9838C41.2864 14.5261 41.2864 13.7841 40.8287 13.3266C39.4959 11.9938 39.4959 9.8252 40.8287 8.49239C43.0753 6.24583 43.0753 2.5902 40.8287 0.343486C40.3709 -0.11417 39.6291 -0.11417 39.1714 0.343486C38.7138 0.801143 38.7138 1.54317 39.1714 2.00067C40.5042 3.33349 40.5042 5.50224 39.1714 6.83505C38.083 7.92333 37.4837 9.37036 37.4837 10.9094ZM69.7658 37.489C68.4183 37.489 67.1084 37.746 65.8719 38.253C64.3484 34.6929 61.7439 31.4729 58.3361 28.9379C57.817 28.5516 57.0828 28.6594 56.6964 29.1786C56.31 29.698 56.418 30.4321 56.9372 30.8183C60.033 33.1211 62.3866 36.0321 63.7433 39.2361C64.2281 40.3813 65.5609 40.9213 66.7158 40.4404C67.6823 40.0371 68.7084 39.8327 69.7659 39.8327C74.1167 39.8327 77.6562 43.3424 77.6562 47.6565C77.6562 51.9705 74.1167 55.4802 69.7658 55.4802C67.6697 55.4802 65.6956 54.6724 64.2072 53.2057C63.3314 52.343 61.9066 52.343 61.0308 53.2058C59.5428 54.6726 57.5688 55.4802 55.4723 55.4802C53.1561 55.4802 50.9653 54.4758 49.4619 52.7246C49.0278 52.2191 48.3989 51.9291 47.7364 51.9291C47.7364 51.9291 47.7364 51.9291 47.7362 51.9291C47.0739 51.9291 46.4447 52.2188 46.0105 52.7247C44.5072 54.4758 42.3164 55.4802 40 55.4802C37.6836 55.4802 35.4928 54.4758 33.9894 52.7244C33.5552 52.219 32.9261 51.929 32.2636 51.9291C31.6011 51.9291 30.9722 52.219 30.5381 52.7246C29.0347 54.4758 26.8439 55.4802 24.5277 55.4802C22.4313 55.4802 20.4572 54.6726 18.9691 53.2057C18.0933 52.343 16.6683 52.3429 15.7928 53.2058C14.3044 54.6724 12.3303 55.4802 10.2342 55.4802C5.88328 55.4802 2.34375 51.9705 2.34375 47.6565C2.34375 43.3424 5.88328 39.8327 10.2342 39.8327C11.2917 39.8327 12.3178 40.0371 13.2844 40.4404C14.4391 40.9221 15.772 40.3811 16.2567 39.2361C19.7434 31.0016 29.2852 25.469 40 25.469C44.3645 25.469 48.663 26.3944 52.4308 28.1454C53.0181 28.4183 53.7147 28.1635 53.9875 27.5765C54.2602 26.9896 54.0055 26.2927 53.4186 26.0199C49.3434 24.1261 44.7034 23.1252 40 23.1252C28.3862 23.1252 18.0006 29.2016 14.1281 38.2529C12.8916 37.7458 11.5817 37.4888 10.2342 37.4888C4.59109 37.489 0 42.05 0 47.6565C0 52.376 3.25375 56.3541 7.64953 57.4949L13.23 73.0199C14.7303 77.195 18.7188 80.0002 23.1547 80.0002H30.1183C30.7656 80.0002 31.2902 79.4757 31.2902 78.8283C31.2902 78.181 30.7656 77.6565 30.1183 77.6565H23.1547C19.7045 77.6565 16.6025 75.4746 15.4356 72.2272L10.2581 57.8233C12.9383 57.8172 15.4637 56.7916 17.3809 54.9308C19.3036 56.7969 21.8384 57.824 24.5277 57.824C27.5013 57.824 30.3164 56.5447 32.2639 54.3121C34.2113 56.5449 37.0261 57.824 40 57.824C42.9741 57.824 45.7891 56.5449 47.7362 54.3121C49.6838 56.5449 52.4986 57.824 55.4723 57.824C58.1617 57.824 60.6966 56.7972 62.6191 54.9308C64.5364 56.7916 67.0617 57.8172 69.7419 57.8233L64.5642 72.2274C63.3973 75.4746 60.2955 77.6565 56.8453 77.6565H35.5872C34.9398 77.6565 34.4153 78.181 34.4153 78.8283C34.4153 79.4757 34.9398 80.0002 35.5872 80.0002H56.8453C61.2814 80.0002 65.2697 77.195 66.77 73.0201L72.3506 57.4949C76.7463 56.3541 80 52.376 80 47.6565C80 42.05 75.4089 37.489 69.7658 37.489ZM46.2025 16.204C46.6602 16.6616 47.402 16.6615 47.8597 16.204C48.3175 15.7463 48.3175 15.0044 47.8598 14.5468C47.005 13.6919 47.005 12.301 47.8598 11.4461C49.6283 9.67755 49.6283 6.79974 47.8598 5.03099C47.4022 4.57333 46.6602 4.57317 46.2027 5.03099C45.7448 5.48864 45.7448 6.23052 46.2025 6.68817C47.0573 7.54302 47.0573 8.93395 46.2025 9.7888C44.4341 11.5574 44.4341 14.4354 46.2025 16.204ZM32.14 16.204C32.5977 16.6616 33.3395 16.6615 33.7972 16.204C34.255 15.7463 34.255 15.0044 33.7973 14.5468C32.9425 13.6919 32.9425 12.301 33.7973 11.4461C35.5658 9.67755 35.5658 6.79974 33.7973 5.03099C33.3397 4.57333 32.5977 4.57317 32.1402 5.03099C31.6823 5.48864 31.6823 6.23052 32.14 6.68817C32.9948 7.54302 32.9948 8.93395 32.14 9.7888C30.3716 11.5574 30.3716 14.4354 32.14 16.204ZM21.0398 40.9135C21.548 41.4216 22.2367 41.6651 23.0267 41.6651C24.5867 41.6651 26.5413 40.7155 28.2766 38.98C29.4028 37.8538 30.2556 36.5629 30.6777 35.3449C31.1978 33.844 31.0319 32.5647 30.2102 31.7432C28.6986 30.2318 25.5875 31.0625 22.9734 33.6768H22.9736C21.8473 34.803 20.9945 36.094 20.5725 37.3119C20.0522 38.8127 20.2181 40.0919 21.0398 40.9135ZM22.7869 38.0791C23.0908 37.2022 23.7628 36.2016 24.6306 35.3338H24.6308C26.1664 33.798 27.5898 33.3188 28.2297 33.3188C28.3903 33.3188 28.5016 33.349 28.5528 33.4002C28.6298 33.4772 28.7094 33.8663 28.4631 34.5772C28.1592 35.4541 27.4872 36.4547 26.6192 37.3226C24.698 39.2438 22.9528 39.5115 22.697 39.256C22.6202 39.1791 22.5406 38.7901 22.7869 38.0791ZM36.25 36.3283C36.25 40.0251 37.862 42.8127 40 42.8127C42.138 42.8127 43.75 40.0251 43.75 36.3283C43.75 32.6316 42.138 29.844 40 29.844C37.862 29.844 36.25 32.6316 36.25 36.3283ZM41.4062 36.3283C41.4062 39.0452 40.3613 40.469 40 40.469C39.6387 40.469 38.5938 39.0452 38.5938 36.3283C38.5938 33.6115 39.6387 32.1877 40 32.1877C40.3613 32.1877 41.4062 33.6115 41.4062 36.3283ZM49.1647 31.7432C48.3431 32.5647 48.1772 33.8438 48.6973 35.3449C49.1194 36.5629 49.9722 37.8538 51.0983 38.98C52.8337 40.7155 54.788 41.6652 56.3483 41.6651C57.1381 41.6651 57.8272 41.4215 58.3353 40.9135C59.1569 40.0919 59.3228 38.8129 58.8027 37.3118C58.3806 36.0938 57.5278 34.8029 56.4017 33.6766C53.7877 31.0626 50.6769 30.2316 49.1647 31.7432ZM54.7444 35.334C55.6122 36.2018 56.2841 37.2024 56.5881 38.0793C56.8344 38.7901 56.7548 39.1793 56.678 39.2561C56.4219 39.5121 54.6767 39.2438 52.7555 37.3227C51.8877 36.4549 51.2158 35.4543 50.9117 34.5774C50.6655 33.8666 50.745 33.4774 50.8219 33.4005C50.8733 33.3491 50.9845 33.319 51.1452 33.319C51.7853 33.319 53.2088 33.7982 54.7444 35.334C54.7442 35.334 54.7442 35.334 54.7444 35.334Z" fill="#E59656"/>
</svg>
