<svg width="49" height="52" viewBox="0 0 49 52" fill="none" xmlns="http://www.w3.org/2000/svg">
<path d="M43.4487 44.3563L40.2904 14.5983C40.2013 13.7784 39.3997 13.1524 38.4385 13.1524H32.8716V9.97446C32.8716 7.41942 31.7174 5.0201 29.6205 3.22458C27.5236 1.42906 24.7216 0.440735 21.7378 0.440735C15.5993 0.440735 10.6039 4.7182 10.6039 9.97446V13.1524H5.03702C4.0758 13.1524 3.27417 13.7784 3.18881 14.5983L0.0305165 44.3563C-0.158758 46.1295 0.538961 47.9028 1.94182 49.2185C3.34468 50.5341 5.34135 51.2873 7.42337 51.2873H36.0558C38.1379 51.2873 40.1345 50.5341 41.5374 49.2185C42.9403 47.9028 43.6343 46.1295 43.4487 44.3563ZM14.3152 9.97446C14.3152 6.46923 17.6442 3.61864 21.7378 3.61864C23.7307 3.61864 25.5975 4.27647 26.9966 5.47136C28.3958 6.66626 29.1603 8.26792 29.1603 9.97446V13.1524H14.3152V9.97446ZM38.7948 47.0765C38.0822 47.7407 37.1098 48.1094 36.0521 48.1094H7.42337C6.36937 48.1094 5.39331 47.7407 4.68445 47.0734C3.97189 46.406 3.63416 45.5448 3.73066 44.6423L6.73308 16.3303H10.6039V21.0971C10.6039 21.9742 11.4353 22.6861 12.4596 22.6861C13.4839 22.6861 14.3152 21.9742 14.3152 21.0971V16.3303H29.1603V21.0971C29.1603 21.9742 29.9916 22.6861 31.0159 22.6861C32.0403 22.6861 32.8716 21.9742 32.8716 21.0971V16.3303H36.7424L39.7486 44.6454C39.8451 45.5448 39.5073 46.4092 38.7948 47.0765Z" fill="black"/>
<ellipse cx="41.5" cy="14.5507" rx="7.5" ry="7.54861" fill="#E59656"/>
<path d="M40.94 10.5871C40.82 10.5951 40.724 10.6151 40.652 10.6471C40.108 10.8551 39.68 11.3471 39.368 12.1231C39.072 12.8751 38.94 13.7191 38.972 14.6551C39.012 15.6231 39.212 16.4191 39.572 17.0431C39.964 17.7151 40.48 18.0711 41.12 18.1111C41.8 18.1591 42.356 17.8151 42.788 17.0791C43.196 16.3591 43.396 15.4671 43.388 14.4031C43.38 13.3311 43.148 12.4351 42.692 11.7151C42.252 11.0031 41.668 10.6271 40.94 10.5871ZM41.384 10.0831C42.128 10.2511 42.72 10.6951 43.16 11.4151C43.672 12.2231 43.932 13.2191 43.94 14.4031C43.948 15.5551 43.72 16.5391 43.256 17.3551C43.008 17.7871 42.7 18.1231 42.332 18.3631C41.964 18.5951 41.552 18.6951 41.096 18.6631C40.256 18.5991 39.592 18.1511 39.104 17.3191C38.688 16.6071 38.46 15.7311 38.42 14.6911C38.38 13.6751 38.524 12.7551 38.852 11.9311C39.228 11.0031 39.76 10.4031 40.448 10.1311C40.48 10.1231 40.52 10.1071 40.568 10.0831C40.624 10.0511 40.676 10.0351 40.724 10.0351H40.904C40.928 10.0351 40.956 10.0351 40.988 10.0351C41.028 10.0271 41.064 10.0231 41.096 10.0231C41.136 10.0231 41.164 10.0151 41.18 9.99907C41.228 9.99107 41.296 10.0191 41.384 10.0831Z" fill="white"/>
</svg>
