<svg width="80" height="80" viewBox="0 0 80 80" fill="none" xmlns="http://www.w3.org/2000/svg">
<g clip-path="url(#clip0)">
<path d="M31.6659 63.3352C14.2061 63.3352 0 49.1291 0 31.6699C0 14.2101 14.2061 0.00402832 31.6659 0.00402832C49.1251 0.00402832 63.3312 14.2101 63.3312 31.6699C63.3312 49.1291 49.1251 63.3352 31.6659 63.3352ZM31.6659 5.00387C16.963 5.00387 4.99984 16.967 4.99984 31.6699C4.99984 46.3728 16.963 58.3353 31.6659 58.3353C46.3688 58.3353 58.3313 46.3728 58.3313 31.6699C58.3313 16.967 46.3688 5.00387 31.6659 5.00387Z" fill="white"/>
<path d="M77.4977 80C76.8574 80 76.2178 79.7565 75.7308 79.267L50.532 54.0676C49.5554 53.091 49.5554 51.5078 50.532 50.5307C51.5085 49.5541 53.0917 49.5541 54.0682 50.5307L79.2676 75.7301C80.2442 76.7066 80.2442 78.2898 79.2676 79.267C78.7775 79.7565 78.1379 80 77.4977 80Z" fill="white"/>
<path d="M44.1656 34.1682H19.1664C17.7865 34.1682 16.6665 33.0483 16.6665 31.6683C16.6665 30.2884 17.7865 29.1684 19.1664 29.1684H44.1656C45.5456 29.1684 46.6656 30.2884 46.6656 31.6683C46.6656 33.0483 45.5456 34.1682 44.1656 34.1682Z" fill="white"/>
<path d="M31.6659 46.6679C30.286 46.6679 29.166 45.5479 29.166 44.168V19.1687C29.166 17.7888 30.286 16.6688 31.6659 16.6688C33.0459 16.6688 34.1659 17.7888 34.1659 19.1687V44.168C34.1659 45.5479 33.0459 46.6679 31.6659 46.6679Z" fill="white"/>
</g>
<defs>
<clipPath id="clip0">
<rect width="80" height="80" fill="white"/>
</clipPath>
</defs>
</svg>
