<svg width="60" height="50" viewBox="0 0 60 50" fill="none" xmlns="http://www.w3.org/2000/svg">
<g clip-path="url(#clip0)">
<path d="M57.7546 22.0638L29.9836 45.2084L2.21254 22.0638C1.69445 21.6467 0.868715 21.6588 0.368234 22.0905C-0.119897 22.5117 -0.119897 23.1795 0.368234 23.6006L29.0627 47.5126C29.572 47.937 30.3976 47.937 30.907 47.5126L59.6014 23.6006C60.1019 23.1689 60.0875 22.4808 59.5694 22.0637C59.0639 21.6568 58.2626 21.6568 57.7571 22.0637L57.7546 22.0638Z" fill="#E59656"/>
<path d="M57.7546 2.49944L29.9836 25.6441L2.21254 2.49944C1.69445 2.08237 0.868715 2.0944 0.368234 2.52614C-0.119897 2.94738 -0.119897 3.61512 0.368234 4.03637L29.0627 27.9484C29.572 28.3727 30.3976 28.3727 30.907 27.9484L59.6014 4.03637C60.1195 3.6193 60.1338 2.93128 59.6335 2.49944C59.133 2.0677 58.3074 2.05578 57.7892 2.47274C57.7783 2.48151 57.7676 2.49037 57.7571 2.49944H57.7546Z" fill="#E59656"/>
<path d="M29.9837 47.8323C29.6375 47.8329 29.3053 47.7187 29.0602 47.5149L0.365778 23.6029C-0.134703 23.1712 -0.120274 22.4831 0.397814 22.066C0.903309 21.6592 1.70459 21.6592 2.20996 22.066L29.9835 45.2085L57.7545 22.0638C58.2726 21.6468 59.0984 21.6588 59.5989 22.0905C60.0871 22.5118 60.0871 23.1795 59.5989 23.6008L30.9045 47.5128C30.6605 47.7167 30.3293 47.8316 29.9837 47.8323Z" fill="#E59656"/>
<path d="M29.9837 28.268C29.6375 28.2685 29.3053 28.1543 29.0602 27.9505L0.365778 4.03851C-0.134703 3.60676 -0.120274 2.91865 0.397815 2.50158C0.903309 2.09481 1.70459 2.09481 2.21009 2.50158L29.9837 25.6441L57.7547 2.49944C58.2552 2.0677 59.0808 2.05578 59.599 2.47274C60.1172 2.88971 60.1314 3.57783 59.631 4.00967C59.6205 4.01874 59.6099 4.0276 59.599 4.03637L30.9045 27.9484C30.6605 28.1523 30.3294 28.2672 29.9837 28.268Z" fill="#E59656"/>
</g>
<defs>
<clipPath id="clip0">
<rect width="60" height="50" fill="white"/>
</clipPath>
</defs>
</svg>
