<svg width="220" height="224" viewBox="0 0 220 224" fill="none" xmlns="http://www.w3.org/2000/svg">
<path d="M218.587 121.551C217.905 110.277 217.19 98.8814 216.462 87.6756C215.687 75.7435 214.721 60.896 206.602 49.4988C200.331 40.6993 190.662 35.1776 182.131 30.307C177.949 27.9195 173.661 25.3663 169.515 22.8969C157.364 15.6628 144.8 8.18429 131.754 2.86425C115.636 -3.70676 95.1371 2.50366 84.3517 6.79148C69.4956 12.696 56.0682 21.9484 43.5892 30.9205C30.9753 39.9883 19.0227 49.1878 11.4143 61.9811C0.352141 80.5816 0.52133 103.943 0.658048 122.716C0.762295 137.362 0.881924 153.962 8.38604 168.144C17.9666 186.249 37.4711 196.407 53.1458 204.571C69.2495 212.957 87.5014 222.463 107.19 223.823C108.899 223.941 110.622 224.001 112.36 224.001C125.646 224.001 139.926 220.533 156.799 213.258C172.892 206.32 185.456 198.504 195.21 189.368C207.227 178.109 215.297 164.183 217.93 150.152C219.735 140.539 219.125 130.451 218.587 121.551ZM108.763 164.699C99.589 164.065 90.7758 159.475 82.9982 155.426C73.8603 150.667 65.9717 146.114 61.9795 138.569C58.5992 132.179 58.5411 124.296 58.4915 117.338C58.4266 108.349 58.3445 97.1621 63.4151 88.6395C66.8997 82.7777 72.594 78.4078 78.6164 74.0773C84.6969 69.7057 91.2269 65.2026 98.3158 62.3845C109.826 57.8095 116.586 59.1836 119.593 60.4072C125.895 62.9775 132.077 66.6569 138.056 70.2167C140.145 71.4591 142.303 72.7443 144.422 73.9559C148.399 76.2255 152.907 78.8009 155.626 82.617C159.148 87.5611 159.598 94.4773 159.96 100.035C160.326 105.687 160.685 111.386 161.021 116.978C161.293 121.452 161.574 126.078 160.745 130.491C159.553 136.833 155.864 143.169 150.352 148.332C145.752 152.642 139.772 156.351 132.07 159.671C123.016 163.575 115.607 165.173 108.763 164.699ZM5.34748 136.45C5.26716 134.93 5.20905 133.408 5.16462 131.887C5.10993 129.945 5.13044 128.026 5.11506 126.093C5.20221 125.958 5.27912 125.818 5.33722 125.661C10.1275 112.539 20.8479 101.667 35.5229 95.0481C43.3483 91.5191 50.8438 89.7913 57.8404 89.8939C56.8116 92.3138 56.0596 94.8345 55.5145 97.4219C43.2115 98.9104 31.3205 104.632 21.969 113.579C14.699 120.536 9.09526 129.223 5.50983 139.001C5.44831 138.148 5.39362 137.297 5.34748 136.45ZM99.5753 57.1618L93.0897 50.9651C89.2599 47.3045 85.3002 43.5208 80.8569 40.3318C75.7744 36.6849 70.6748 34.3197 65.6982 33.3011C59.5818 32.0484 53.397 32.7166 47.8053 33.4788C51.7804 30.6197 55.7913 27.7845 59.8775 25.0673C60.0535 25.1339 60.2381 25.1852 60.4329 25.204C73.375 26.4515 85.9753 31.7528 95.9112 40.1353C101.479 44.8316 105.475 49.8919 107.819 55.1982C106.304 55.4409 104.789 55.7707 103.284 56.1552C102.055 56.4697 100.842 56.8337 99.6402 57.237C99.618 57.2131 99.6009 57.1858 99.5753 57.1618ZM165.921 128.565C165.971 128.045 166 127.526 166.017 127.006C167.128 127.103 168.252 127.153 169.394 127.153C176.411 127.153 183.961 125.319 191.486 121.763C200.767 117.372 208.135 111.23 212.87 104.053C212.993 107.139 213.116 110.224 213.265 113.309C213.311 114.281 213.371 115.248 213.439 116.214C213.291 116.316 213.149 116.433 213.024 116.574C205.879 124.807 195.16 129.308 186.62 132.311C179.759 134.724 171.8 137.01 164.058 136.202C165.017 133.732 165.673 131.172 165.921 128.565ZM179.962 34.106C188.102 38.7545 197.327 44.0232 203.038 52.0366C210.437 62.4204 211.356 76.5809 212.096 87.9593C212.255 90.4168 212.385 92.8777 212.501 95.3386C212.482 95.378 212.457 95.4138 212.441 95.4566C208.888 104.588 200.783 112.526 189.614 117.807C181.374 121.701 173.176 123.352 165.882 122.593C165.731 120.626 165.508 118.661 165.39 116.713C165.051 111.116 164.692 105.41 164.325 99.7512C164.104 96.3504 163.86 92.9375 163.142 89.5982C162.836 88.1678 162.527 86.6434 162.081 85.1771C168.731 76.6202 172.94 66.4142 174.254 55.6579C174.941 50.0337 174.751 44.7718 173.692 40.0174C172.689 35.5194 170.843 31.2743 169.346 28.0768C169.339 28.0648 169.334 28.0511 169.327 28.0392C172.848 30.0934 176.402 32.0741 179.962 34.106ZM162.426 23.8351C162.416 24.264 162.531 24.6981 162.783 25.0844C163.788 26.6105 164.627 28.3177 165.383 29.9327C166.873 33.1131 168.517 36.9105 169.421 40.9693C170.373 45.2349 170.537 49.9978 169.912 55.1264C168.78 64.3806 165.337 73.1903 159.923 80.7508C158.203 78.3959 156.064 76.4254 153.729 74.6908C159.533 63.6833 160.182 50.8335 160.088 40.8274C160.047 36.5242 159.854 32.92 159.044 29.3192C158.61 27.3932 158.005 25.5338 157.419 23.736C157.07 22.6644 156.71 21.557 156.4 20.4753L156.284 20.0634C158.005 21.0512 159.707 22.0749 161.38 23.1669C161.727 23.3942 162.078 23.6129 162.426 23.8351ZM85.9684 10.8571C93.0248 8.0527 104.454 4.35961 115.699 4.35961C120.666 4.35961 125.598 5.08079 130.101 6.91623C136.2 9.40279 142.107 12.3371 147.895 15.4731C148.618 15.8627 149.337 16.249 150.058 16.6352C150.13 16.7719 150.216 16.9035 150.32 17.0248C151.169 18.0229 151.585 19.5028 152.024 21.07L152.195 21.6801C152.526 22.8371 152.899 23.9838 153.261 25.0912C153.84 26.8719 154.387 28.5553 154.777 30.2814C155.503 33.5045 155.678 36.8455 155.713 40.8685C155.802 50.2268 155.226 62.1691 150.082 72.2265C148.929 71.5087 147.758 70.8217 146.593 70.1569C144.508 68.9657 142.366 67.6908 140.295 66.4587C134.177 62.8168 127.852 59.0503 121.245 56.3569C118.324 55.1658 115.359 54.7317 112.386 54.7812C109.862 48.3589 105.275 42.3091 98.7327 36.7908C89.3077 28.8424 77.6423 23.4899 65.4692 21.4596C72.0129 17.3905 78.7924 13.7282 85.9684 10.8571ZM15.1741 64.2182C21.2632 53.9797 30.2678 46.3782 39.6774 39.3851C40.1952 39.5679 40.7831 39.5611 41.3214 39.3133C42.9347 38.5716 44.8539 38.3033 46.7098 38.0452C52.3836 37.2557 58.8145 36.3585 64.8215 37.5889C69.1897 38.4827 73.727 40.6019 78.3054 43.8882C82.4992 46.896 86.3461 50.572 90.0665 54.1284L95.1371 58.9716C94.9713 59.0434 94.8055 59.1135 94.6415 59.1853C92.3549 60.2021 90.1332 61.3642 87.9696 62.6186C83.8442 65.0112 79.9306 67.7438 76.0615 70.526C71.5395 73.7765 66.9595 77.0817 63.2459 81.2704C62.0222 82.6495 60.9661 84.097 60.0467 85.5992C51.7855 85.0745 42.9313 86.9066 33.725 91.0594C21.0188 96.7896 11.0572 105.543 4.94929 116.183C4.95441 112.553 5.0467 108.923 5.19367 105.297C5.76276 91.1944 7.84258 76.545 15.1741 64.2182ZM12.2534 166.099C9.3875 160.678 7.6751 154.738 6.64288 148.671C7.0462 148.378 7.35382 147.953 7.48541 147.433C10.4419 135.614 16.6609 124.713 24.9939 116.738C33.3388 108.754 43.849 103.545 54.7608 101.939C54.1199 107.033 54.0789 112.275 54.1165 117.371C54.1695 124.827 54.231 133.28 58.1121 140.615C59.4417 143.127 61.3011 145.024 62.9758 147.266C63.0716 147.396 63.1775 147.519 63.2783 147.645C57.825 156.77 54.8394 167.167 54.648 177.807C54.4959 186.166 56.4852 194.916 60.4346 203.419C58.6761 202.515 56.9192 201.604 55.1658 200.69C36.5807 191.011 20.5232 181.727 12.2534 166.099ZM67.0979 206.769C61.6446 197.262 58.8521 187.28 59.0213 177.887C59.1956 168.336 61.7881 158.995 66.5356 150.732C67.1389 151.19 67.7576 151.625 68.3848 152.042C69.7707 152.964 71.0303 154.121 72.4419 155.006C68.7385 163.288 67.4448 173.473 68.6103 185.308C69.6152 195.493 72.1633 204.137 76.1982 211.088C73.6894 210.05 71.2746 208.794 68.8291 207.618C68.2497 207.34 67.6738 207.053 67.0979 206.769ZM155.066 209.24C136.648 217.182 121.534 220.429 107.491 219.458C100.36 218.964 93.3529 217.313 86.5939 215.027C85.3498 214.606 84.1381 214.143 82.9316 213.673C82.8717 213.35 82.747 213.034 82.5351 212.752C77.3261 205.85 74.1064 196.471 72.9648 184.877C71.8677 173.745 73.0588 164.255 76.4956 156.655C76.8869 156.804 77.2663 156.978 77.6166 157.212C78.7377 157.957 79.7665 158.675 80.9782 159.306C83.769 160.76 86.5648 162.211 89.4205 163.537C95.4327 166.328 101.8 168.604 108.462 169.064C109.344 169.124 110.232 169.154 111.13 169.154C111.989 169.154 112.849 169.122 113.707 169.067C115.879 175.428 119.565 181.208 124.437 185.855C127.278 188.565 130.684 191.069 135.16 193.733C145.724 200.025 156.028 203.515 165.887 204.17C165.518 204.353 165.145 204.535 164.776 204.722C161.585 206.325 158.345 207.827 155.066 209.24ZM173.996 200.099C173.62 199.872 173.174 199.752 172.704 199.788C161.789 200.627 149.582 197.23 137.397 189.975C133.211 187.482 130.053 185.168 127.456 182.69C123.321 178.745 120.139 173.892 118.16 168.546C121.078 168.059 123.959 167.305 126.777 166.377C130.13 170.939 134.5 174.486 138.76 177.646C145.774 182.848 151.482 186.203 157.269 188.527C163.93 191.204 171.104 192.561 178.279 192.561C180.868 192.561 183.457 192.376 186.022 192.022C185.239 192.704 184.433 193.369 183.58 194.006C180.545 196.274 177.337 198.31 173.996 200.099ZM214.759 137.106C214.697 141.206 214.388 145.311 213.631 149.344C211.166 162.469 203.561 175.548 192.219 186.176C192.063 186.321 191.911 186.468 191.757 186.613C191.462 186.56 191.154 186.565 190.845 186.642C180.318 189.288 168.972 188.515 158.901 184.469C153.475 182.29 148.067 179.101 141.367 174.133C137.723 171.429 134.008 168.442 131.09 164.81C132.003 164.448 132.909 164.075 133.801 163.689C141.977 160.165 148.368 156.187 153.345 151.525C156.71 148.372 159.817 144.561 162.114 140.362C163.852 140.623 165.59 140.751 167.319 140.751C174.637 140.751 181.799 138.642 188.071 136.438C196.23 133.568 206.284 129.366 213.916 121.968C214.367 126.989 214.835 131.986 214.759 137.106Z" fill="#E59656"/>
</svg>
