<svg width="118" height="31" viewBox="0 0 118 31" fill="none" xmlns="http://www.w3.org/2000/svg">
<rect y="7" width="118" height="24" rx="5" fill="#FFD3AF"/>
<path d="M14 0L18.3301 7.5H9.66987L14 0Z" fill="#FFD3AF"/>
<path d="M28.0381 16.501C27.2536 16.501 26.6335 16.763 26.1777 17.2871C25.7253 17.8079 25.499 18.5225 25.499 19.4307C25.499 20.3649 25.7171 21.0876 26.1533 21.5986C26.5928 22.1064 27.2178 22.3604 28.0283 22.3604C28.5264 22.3604 29.0944 22.2708 29.7324 22.0918V22.8193C29.2376 23.0049 28.6273 23.0977 27.9014 23.0977C26.8499 23.0977 26.0378 22.7786 25.4648 22.1406C24.8952 21.5026 24.6104 20.596 24.6104 19.4209C24.6104 18.6852 24.7471 18.0407 25.0205 17.4873C25.2972 16.9339 25.6943 16.5075 26.2119 16.208C26.7327 15.9085 27.3447 15.7588 28.0479 15.7588C28.7965 15.7588 29.4508 15.8955 30.0107 16.1689L29.6592 16.8818C29.1188 16.6279 28.5785 16.501 28.0381 16.501ZM34.2881 17.6484H35.1768L32.8672 20.2314L35.3672 23H34.4199L31.9785 20.29V23H31.168V17.6484H31.9785V20.251L34.2881 17.6484ZM40.9824 20.3193C40.9824 21.1917 40.7627 21.8737 40.3232 22.3652C39.8838 22.8535 39.2767 23.0977 38.502 23.0977C38.0234 23.0977 37.5986 22.9854 37.2275 22.7607C36.8564 22.5361 36.57 22.2139 36.3682 21.7939C36.1663 21.374 36.0654 20.8825 36.0654 20.3193C36.0654 19.4469 36.2835 18.7682 36.7197 18.2832C37.1559 17.7949 37.7614 17.5508 38.5361 17.5508C39.2848 17.5508 39.8789 17.7998 40.3184 18.2979C40.7611 18.7959 40.9824 19.4697 40.9824 20.3193ZM36.9053 20.3193C36.9053 21.0029 37.042 21.5238 37.3154 21.8818C37.5889 22.2399 37.9909 22.4189 38.5215 22.4189C39.0521 22.4189 39.4541 22.2415 39.7275 21.8867C40.0042 21.5286 40.1426 21.0062 40.1426 20.3193C40.1426 19.639 40.0042 19.123 39.7275 18.7715C39.4541 18.4167 39.0488 18.2393 38.5117 18.2393C37.9811 18.2393 37.5807 18.4134 37.3105 18.7617C37.0404 19.11 36.9053 19.6292 36.9053 20.3193ZM43.2188 23H42.4082V17.6484H46.9004V23H46.0801V18.3516H43.2188V23ZM49.3809 17.6484V21.042L49.3467 21.9307L49.332 22.209L52.2275 17.6484H53.2383V23H52.4814V19.7285L52.4961 19.084L52.5205 18.4492L49.6299 23H48.6191V17.6484H49.3809ZM57.4473 23.0977C57.099 23.0977 56.7799 23.0342 56.4902 22.9072C56.2038 22.777 55.9629 22.5785 55.7676 22.3115H55.709C55.748 22.624 55.7676 22.9202 55.7676 23.2002V25.4023H54.957V17.6484H55.6162L55.7285 18.3809H55.7676C55.9759 18.0879 56.2184 17.8763 56.4951 17.7461C56.7718 17.6159 57.0892 17.5508 57.4473 17.5508C58.1569 17.5508 58.7038 17.7933 59.0879 18.2783C59.4753 18.7633 59.6689 19.4437 59.6689 20.3193C59.6689 21.1982 59.472 21.8818 59.0781 22.3701C58.6875 22.8551 58.1439 23.0977 57.4473 23.0977ZM57.3301 18.2393C56.7832 18.2393 56.3877 18.3906 56.1436 18.6934C55.8994 18.9961 55.7741 19.4779 55.7676 20.1387V20.3193C55.7676 21.0713 55.8929 21.61 56.1436 21.9355C56.3942 22.2578 56.7962 22.4189 57.3496 22.4189C57.8118 22.4189 58.1732 22.2318 58.4336 21.8574C58.6973 21.4831 58.8291 20.9671 58.8291 20.3096C58.8291 19.6423 58.6973 19.1312 58.4336 18.7764C58.1732 18.4183 57.8053 18.2393 57.3301 18.2393ZM65.709 20.3193C65.709 21.1917 65.4893 21.8737 65.0498 22.3652C64.6104 22.8535 64.0033 23.0977 63.2285 23.0977C62.75 23.0977 62.3252 22.9854 61.9541 22.7607C61.583 22.5361 61.2965 22.2139 61.0947 21.7939C60.8929 21.374 60.792 20.8825 60.792 20.3193C60.792 19.4469 61.0101 18.7682 61.4463 18.2832C61.8825 17.7949 62.488 17.5508 63.2627 17.5508C64.0114 17.5508 64.6055 17.7998 65.0449 18.2979C65.4876 18.7959 65.709 19.4697 65.709 20.3193ZM61.6318 20.3193C61.6318 21.0029 61.7686 21.5238 62.042 21.8818C62.3154 22.2399 62.7174 22.4189 63.248 22.4189C63.7786 22.4189 64.1807 22.2415 64.4541 21.8867C64.7308 21.5286 64.8691 21.0062 64.8691 20.3193C64.8691 19.639 64.7308 19.123 64.4541 18.7715C64.1807 18.4167 63.7754 18.2393 63.2383 18.2393C62.7077 18.2393 62.3073 18.4134 62.0371 18.7617C61.7669 19.11 61.6318 19.6292 61.6318 20.3193ZM71.4756 18.9912C71.4756 19.3395 71.3747 19.6048 71.1729 19.7871C70.9743 19.9661 70.6943 20.0866 70.333 20.1484V20.1924C70.7887 20.2542 71.1208 20.3877 71.3291 20.5928C71.5407 20.7979 71.6465 21.0811 71.6465 21.4424C71.6465 21.9404 71.4626 22.3245 71.0947 22.5947C70.7301 22.8649 70.1963 23 69.4932 23H67.1348V17.6484H69.4834C70.8115 17.6484 71.4756 18.096 71.4756 18.9912ZM70.8359 21.3887C70.8359 21.099 70.7253 20.889 70.5039 20.7588C70.2858 20.6253 69.9229 20.5586 69.415 20.5586H67.9453V22.3213H69.4346C70.3688 22.3213 70.8359 22.0104 70.8359 21.3887ZM70.6846 19.0693C70.6846 18.8089 70.5837 18.625 70.3818 18.5176C70.1833 18.4069 69.8805 18.3516 69.4736 18.3516H67.9453V19.8604H69.3174C69.8187 19.8604 70.1719 19.7985 70.377 19.6748C70.582 19.5511 70.6846 19.3493 70.6846 19.0693ZM76.1191 23L75.958 22.2383H75.9189C75.652 22.5736 75.3851 22.8014 75.1182 22.9219C74.8545 23.0391 74.5241 23.0977 74.127 23.0977C73.5964 23.0977 73.1797 22.9609 72.877 22.6875C72.5775 22.4141 72.4277 22.0251 72.4277 21.5205C72.4277 20.4398 73.292 19.8734 75.0205 19.8213L75.9287 19.792V19.46C75.9287 19.04 75.8376 18.7308 75.6553 18.5322C75.4762 18.3304 75.1882 18.2295 74.791 18.2295C74.3451 18.2295 73.8405 18.3662 73.2773 18.6396L73.0283 18.0195C73.292 17.8763 73.5801 17.764 73.8926 17.6826C74.2083 17.6012 74.5241 17.5605 74.8398 17.5605C75.4779 17.5605 75.9499 17.7021 76.2559 17.9854C76.5651 18.2686 76.7197 18.7227 76.7197 19.3477V23H76.1191ZM74.2881 22.4287C74.7926 22.4287 75.1882 22.2904 75.4746 22.0137C75.7643 21.737 75.9092 21.3496 75.9092 20.8516V20.3682L75.0986 20.4023C74.4541 20.4251 73.9886 20.526 73.7021 20.7051C73.4189 20.8809 73.2773 21.1559 73.2773 21.5303C73.2773 21.8232 73.3652 22.0462 73.541 22.1992C73.7201 22.3522 73.9691 22.4287 74.2881 22.4287ZM79.2051 17.6484V19.8896H82.2031V17.6484H83.0137V23H82.2031V20.5879H79.2051V23H78.3945V17.6484H79.2051ZM89.3516 20.3193C89.3516 21.1917 89.1318 21.8737 88.6924 22.3652C88.2529 22.8535 87.6458 23.0977 86.8711 23.0977C86.3926 23.0977 85.9678 22.9854 85.5967 22.7607C85.2256 22.5361 84.9391 22.2139 84.7373 21.7939C84.5355 21.374 84.4346 20.8825 84.4346 20.3193C84.4346 19.4469 84.6527 18.7682 85.0889 18.2832C85.5251 17.7949 86.1305 17.5508 86.9053 17.5508C87.654 17.5508 88.248 17.7998 88.6875 18.2979C89.1302 18.7959 89.3516 19.4697 89.3516 20.3193ZM85.2744 20.3193C85.2744 21.0029 85.4111 21.5238 85.6846 21.8818C85.958 22.2399 86.36 22.4189 86.8906 22.4189C87.4212 22.4189 87.8232 22.2415 88.0967 21.8867C88.3734 21.5286 88.5117 21.0062 88.5117 20.3193C88.5117 19.639 88.3734 19.123 88.0967 18.7715C87.8232 18.4167 87.418 18.2393 86.8809 18.2393C86.3503 18.2393 85.9499 18.4134 85.6797 18.7617C85.4095 19.11 85.2744 19.6292 85.2744 20.3193ZM91.5098 21.0322H90.9971L90.748 15.8613H91.7588L91.5098 21.0322ZM90.6602 22.4824C90.6602 22.0397 90.8555 21.8184 91.2461 21.8184C91.4349 21.8184 91.5798 21.8753 91.6807 21.9893C91.7848 22.1032 91.8369 22.2676 91.8369 22.4824C91.8369 22.6908 91.7848 22.8535 91.6807 22.9707C91.5765 23.0846 91.4316 23.1416 91.2461 23.1416C91.0768 23.1416 90.9368 23.0911 90.8262 22.9902C90.7155 22.8861 90.6602 22.7168 90.6602 22.4824Z" fill="#4E4E4E"/>
</svg>
