<svg width="47" height="47" viewBox="0 0 47 47" fill="none" xmlns="http://www.w3.org/2000/svg">
<path d="M30.2472 8.21997H8.39796C6.34778 8.21997 4.68262 9.88514 4.68262 11.9353V43.2847C4.68262 45.3349 6.34778 47 8.39796 47H30.2472C32.2974 47 33.9626 45.3349 33.9626 43.2847V11.9353C33.9529 9.88514 32.2878 8.21997 30.2472 8.21997ZM31.3541 43.2751C31.3541 43.8911 30.8536 44.3916 30.2376 44.3916H8.38833C7.77232 44.3916 7.2718 43.8911 7.2718 43.2751V11.9353C7.2718 11.3193 7.77232 10.8188 8.38833 10.8188H30.2376C30.8536 10.8188 31.3541 11.3193 31.3541 11.9353V43.2751Z" fill="white"/>
<path d="M38.602 0H16.7527C14.7025 0 13.0374 1.66516 13.0374 3.71534C13.0374 4.43723 13.6149 5.01474 14.3368 5.01474C15.0587 5.01474 15.6362 4.43723 15.6362 3.71534C15.6362 3.09932 16.1367 2.59881 16.7527 2.59881H38.602C39.218 2.59881 39.7185 3.09932 39.7185 3.71534V35.0647C39.7185 35.6807 39.218 36.1812 38.602 36.1812C37.8801 36.1812 37.3026 36.7588 37.3026 37.4806C37.3026 38.2025 37.8801 38.7801 38.602 38.7801C40.6521 38.7801 42.3173 37.1149 42.3173 35.0647V3.71534C42.3173 1.66516 40.6521 0 38.602 0Z" fill="white"/>
</svg>
