<svg width="160" height="160" viewBox="0 0 160 160" fill="none" xmlns="http://www.w3.org/2000/svg">
<path d="M159.597 86.8219C159.098 78.769 158.574 70.6294 158.041 62.6254C157.473 54.1025 156.766 43.4971 150.821 35.3563C146.23 29.071 139.15 25.1269 132.903 21.648C129.841 19.9426 126.701 18.1189 123.665 16.355C114.768 11.1878 105.568 5.8461 96.0151 2.04608C84.2134 -2.64748 69.2033 1.78852 61.306 4.85123C50.4279 9.06872 40.5959 15.6776 31.4585 22.0862C22.2221 28.5632 13.4701 35.1342 7.89903 44.2723C-0.201047 57.5583 -0.0771619 74.2451 0.0229471 87.6544C0.0992803 98.1158 0.186876 109.972 5.68161 120.103C12.6968 133.035 26.9786 140.291 38.4561 146.122C50.2477 152.112 63.6122 158.901 78.0292 159.873C79.2806 159.957 80.5419 160 81.8146 160C91.5427 160 101.999 157.523 114.354 152.327C126.138 147.371 135.338 141.788 142.479 135.263C151.279 127.221 157.188 117.273 159.116 107.251C160.438 100.385 159.991 93.1793 159.597 86.8219ZM79.1805 117.642C72.4631 117.189 66.0099 113.91 60.3149 111.018C53.6239 107.619 47.8476 104.367 44.9244 98.9776C42.4492 94.4134 42.4066 88.7824 42.3703 83.8129C42.3228 77.3921 42.2627 69.4014 45.9755 63.3138C48.5271 59.1269 52.6966 56.0056 57.1064 52.9123C61.5588 49.7898 66.3402 46.5733 71.5309 44.5603C79.9588 41.2926 84.9092 42.274 87.1103 43.148C91.7254 44.9839 96.2516 47.6121 100.63 50.1548C102.159 51.0422 103.74 51.9602 105.291 52.8257C108.203 54.4467 111.504 56.2863 113.495 59.0121C116.074 62.5436 116.404 67.4837 116.669 71.4534C116.937 75.4902 117.199 79.5613 117.446 83.5554C117.645 86.7511 117.85 90.0555 117.243 93.2074C116.371 97.7374 113.669 102.264 109.634 105.951C106.265 109.03 101.886 111.679 96.2466 114.051C89.6168 116.839 84.1922 117.98 79.1805 117.642ZM3.45669 97.4639C3.39787 96.3787 3.35533 95.2911 3.32279 94.2047C3.28275 92.818 3.29777 91.4471 3.2865 90.0665C3.35032 89.9701 3.40663 89.87 3.44918 89.7577C6.95675 80.3852 14.8066 72.6192 25.552 67.8914C31.282 65.3707 36.7705 64.1366 41.8936 64.2098C41.1403 65.9383 40.5897 67.7389 40.1905 69.587C31.1819 70.6502 22.4749 74.7371 15.6275 81.1274C10.3042 86.0968 6.20093 92.3016 3.57557 99.2864C3.53052 98.6773 3.49048 98.0694 3.45669 97.4639ZM72.4531 40.8299L67.7042 36.4037C64.8999 33.789 62.0005 31.0863 58.7469 28.8085C55.0254 26.2036 51.2913 24.5141 47.6473 23.7866C43.1687 22.8918 38.64 23.3691 34.5456 23.9136C37.4562 21.8713 40.3932 19.8462 43.3852 17.9053C43.5141 17.9529 43.6492 17.9895 43.7919 18.003C53.2685 18.8941 62.4948 22.6807 69.7702 28.6682C73.8471 32.0226 76.7728 35.6371 78.4897 39.4273C77.3797 39.6007 76.271 39.8363 75.1686 40.1109C74.2689 40.3355 73.3804 40.5955 72.5007 40.8836C72.4844 40.8665 72.4719 40.847 72.4531 40.8299ZM121.034 91.8316C121.07 91.4606 121.091 91.0895 121.104 90.7184C121.917 90.788 122.74 90.8234 123.576 90.8234C128.714 90.8234 134.243 89.5136 139.753 86.9733C146.549 83.8373 151.943 79.4502 155.411 74.3233C155.501 76.5278 155.591 78.7312 155.7 80.9345C155.734 81.6291 155.778 82.32 155.828 83.0097C155.719 83.083 155.615 83.166 155.524 83.2673C150.292 89.1474 142.443 92.3627 136.19 94.5074C131.166 96.231 125.338 97.8643 119.67 97.2869C120.372 95.523 120.852 93.6944 121.034 91.8316ZM131.315 24.3616C137.275 27.6818 144.03 31.4452 148.212 37.1691C153.629 44.586 154.302 54.7006 154.844 62.828C154.961 64.5834 155.056 66.3412 155.141 68.099C155.127 68.127 155.108 68.1527 155.097 68.1832C152.495 74.7053 146.56 80.3755 138.382 84.1474C132.348 86.9294 126.346 88.1085 121.005 87.5666C120.895 86.1615 120.731 84.7577 120.644 83.3661C120.397 79.3684 120.134 75.2925 119.865 71.2508C119.703 68.8216 119.524 66.3839 118.999 63.9986C118.775 62.9769 118.548 61.8881 118.222 60.8407C123.091 54.7287 126.173 47.4387 127.135 39.7557C127.638 35.7384 127.499 31.9799 126.724 28.5839C125.989 25.3711 124.637 22.3389 123.541 20.055C123.536 20.0464 123.533 20.0366 123.528 20.0281C126.105 21.4954 128.708 22.9102 131.315 24.3616ZM118.475 17.0252C118.467 17.3316 118.551 17.6416 118.736 17.9175C119.472 19.0076 120.086 20.2271 120.639 21.3806C121.731 23.6523 122.934 26.3647 123.596 29.2639C124.293 32.3107 124.413 35.7128 123.955 39.3761C123.127 45.9861 120.606 52.2788 116.641 57.6791C115.382 55.997 113.816 54.5896 112.106 53.3506C116.356 45.4881 116.831 36.3097 116.763 29.1625C116.733 26.0888 116.591 23.5144 115.998 20.9424C115.68 19.5667 115.237 18.2386 114.808 16.9544C114.553 16.189 114.289 15.398 114.062 14.6253L113.977 14.3311C115.237 15.0367 116.484 15.7679 117.709 16.5479C117.963 16.7103 118.219 16.8665 118.475 17.0252ZM62.4898 7.75526C67.6566 5.7521 76.0258 3.11419 84.2597 3.11419C87.8962 3.11419 91.5076 3.62932 94.805 4.94034C99.2711 6.71645 103.596 8.81238 107.834 11.0524C108.364 11.3307 108.89 11.6065 109.418 11.8824C109.471 11.9801 109.534 12.0741 109.61 12.1607C110.232 12.8736 110.536 13.9307 110.857 15.0501L110.983 15.4859C111.225 16.3123 111.498 17.1314 111.763 17.9224C112.188 19.1944 112.588 20.3967 112.873 21.6296C113.405 23.9319 113.533 26.3183 113.559 29.1918C113.624 35.8763 113.203 44.4065 109.436 51.5903C108.591 51.0776 107.734 50.5869 106.881 50.1121C105.354 49.2612 103.786 48.3506 102.269 47.4705C97.7895 44.8692 93.1582 42.1788 88.3204 40.255C86.1818 39.4041 84.0107 39.0941 81.8333 39.1295C79.9851 34.5421 76.6264 30.2209 71.8362 26.2793C64.9349 20.6018 56.3931 16.7786 47.4797 15.3284C52.2711 12.422 57.2353 9.80602 62.4898 7.75526ZM10.652 45.8702C15.1106 38.557 21.7041 33.1273 28.5941 28.1323C28.9732 28.2629 29.4037 28.258 29.7979 28.081C30.9792 27.5512 32.3845 27.3596 33.7434 27.1753C37.898 26.6113 42.6068 25.9704 47.0054 26.8493C50.2039 27.4877 53.5262 29.0014 56.8787 31.3488C59.9495 33.4972 62.7663 36.1229 65.4905 38.6632L69.2033 42.1226C69.082 42.1739 68.9606 42.2239 68.8404 42.2752C67.1661 43.0015 65.5393 43.8316 63.9551 44.7276C60.9343 46.4366 58.0687 48.3884 55.2356 50.3757C51.9245 52.6975 48.5709 55.0583 45.8516 58.0502C44.9557 59.0353 44.1823 60.0692 43.5091 61.1422C37.46 60.7675 30.9767 62.0761 24.2356 65.0423C14.9317 69.1353 7.6375 75.3877 3.16512 82.9877C3.16887 80.395 3.23645 77.8022 3.34407 75.2119C3.76077 65.1388 5.28368 54.675 10.652 45.8702ZM8.51345 118.642C6.41491 114.77 5.16105 110.527 4.40522 106.193C4.70054 105.984 4.92579 105.68 5.02215 105.309C7.187 96.867 11.7407 89.0802 17.8424 83.3845C23.9528 77.6814 31.6487 73.9607 39.6386 72.8133C39.1694 76.4521 39.1393 80.196 39.1669 83.8361C39.2056 89.162 39.2507 95.1995 42.0925 100.439C43.0661 102.233 44.4276 103.588 45.6539 105.19C45.724 105.282 45.8016 105.37 45.8754 105.461C41.8823 111.978 39.6962 119.405 39.556 127.005C39.4447 132.975 40.9012 139.225 43.7931 145.299C42.5055 144.653 41.2191 144.003 39.9352 143.35C26.3266 136.436 14.5688 129.805 8.51345 118.642ZM48.6722 147.692C44.6791 140.901 42.6344 133.771 42.7583 127.062C42.8859 120.24 44.7842 113.567 48.2605 107.665C48.7022 107.992 49.1552 108.304 49.6145 108.602C50.6293 109.259 51.5516 110.086 52.5852 110.718C49.8735 116.634 48.9262 123.909 49.7797 132.362C50.5155 139.638 52.3813 145.812 55.3357 150.776C53.4987 150.035 51.7305 149.138 49.9398 148.298C49.5156 148.099 49.0939 147.894 48.6722 147.692ZM113.085 149.457C99.599 155.129 88.5319 157.449 78.2494 156.755C73.0275 156.403 67.8969 155.223 62.9478 153.59C62.0368 153.29 61.1496 152.959 60.2661 152.623C60.2223 152.393 60.1309 152.167 59.9758 151.965C56.1616 147.035 53.8041 140.336 52.9681 132.055C52.1648 124.103 53.037 117.325 55.5535 111.896C55.84 112.002 56.1178 112.127 56.3744 112.294C57.1952 112.826 57.9486 113.339 58.8358 113.789C60.8793 114.828 62.9265 115.865 65.0175 116.812C69.4198 118.805 74.0824 120.431 78.9602 120.76C79.6059 120.802 80.2566 120.824 80.9136 120.824C81.543 120.824 82.1725 120.801 82.8007 120.762C84.3911 125.305 87.0903 129.434 90.658 132.753C92.7377 134.689 95.2317 136.477 98.509 138.38C106.245 142.875 113.789 145.368 121.009 145.835C120.738 145.966 120.465 146.096 120.195 146.229C117.859 147.374 115.486 148.447 113.085 149.457ZM126.946 142.927C126.671 142.765 126.344 142.68 126 142.705C118.008 143.305 109.069 140.878 100.147 135.696C97.0825 133.915 94.7699 132.262 92.8679 130.492C89.8408 127.675 87.5108 124.208 86.0617 120.39C88.1978 120.042 90.3076 119.504 92.3711 118.841C94.8263 122.099 98.026 124.633 101.146 126.89C106.281 130.606 110.461 133.002 114.698 134.662C119.576 136.574 124.829 137.543 130.082 137.543C131.978 137.543 133.874 137.411 135.752 137.158C135.179 137.645 134.588 138.12 133.964 138.576C131.741 140.195 129.393 141.649 126.946 142.927ZM156.794 97.9327C156.749 100.861 156.522 103.793 155.968 106.674C154.163 116.049 148.595 125.391 140.29 132.982C140.176 133.086 140.064 133.191 139.952 133.295C139.735 133.257 139.51 133.261 139.283 133.316C131.575 135.205 123.267 134.654 115.893 131.763C111.92 130.207 107.961 127.929 103.054 124.38C100.386 122.449 97.6656 120.315 95.5295 117.721C96.1978 117.463 96.861 117.196 97.5142 116.921C103.501 114.403 108.181 111.562 111.825 108.232C114.289 105.979 116.564 103.257 118.246 100.258C119.518 100.445 120.791 100.536 122.057 100.536C127.416 100.536 132.66 99.0301 137.252 97.4554C143.227 95.4058 150.588 92.4042 156.177 87.1198C156.507 90.7062 156.85 94.2755 156.794 97.9327Z" fill="#E59656"/>
</svg>
