<svg width="161" height="141" viewBox="0 0 161 141" fill="none" xmlns="http://www.w3.org/2000/svg">
<path d="M160.917 51.2333C160.411 36.8341 156.416 20.5426 144.946 10.6426C138.397 4.99021 129.736 2.16646 121.212 0.968001C111.398 -0.411417 101.597 0.72978 92.1272 3.48923C88.3431 4.59185 83.6293 5.54994 80.6928 8.325C72.8434 4.56184 64.0618 3.51097 55.3431 3.86922C50.3584 4.07407 45.265 4.01773 40.3253 4.73668C35.5393 5.43328 30.8628 7.34578 26.6193 9.5798C18.3446 13.9358 10.0384 20.7171 6.53651 29.4753C4.75464 33.9317 3.51058 38.7987 2.42433 43.4587C1.27151 48.405 0.759325 53.4116 1.03776 58.4819C1.32339 63.6806 1.69308 68.99 2.33526 74.1574C2.93058 78.9466 3.86901 83.8415 5.77651 88.3074C9.56526 97.1779 14.6365 105.113 20.3568 112.872C22.9806 116.43 25.1821 120.083 28.3631 123.267C31.5671 126.475 35.1959 129.266 39.0762 131.646C42.8703 133.973 46.9206 135.91 51.1531 137.343C55.729 138.891 60.2128 139.365 65.024 139.767C74.9175 140.594 84.9568 140.797 94.7615 139.031C114.919 135.401 133.102 123.396 145.539 107.614C151.387 100.192 154.786 89.8157 157.109 80.8147C159.598 71.1698 161.268 61.2089 160.917 51.2333ZM155.871 66.9011C154.439 76.1382 152.113 85.4729 148.295 94.0575C144.642 102.269 139.763 109.567 132.857 115.484C121.946 124.832 108.969 132.323 94.6137 135.148C86.4878 136.747 78.12 136.796 69.8481 136.286C63.6981 135.907 57.5259 135.214 51.634 133.446C41.6559 130.451 34.2575 123.98 27.7412 116.233C22.709 110.249 17.9078 104.031 14.1575 97.2043C9.81433 89.2979 6.95089 80.6206 5.69495 71.7287C5.05401 67.1902 5.32089 62.7258 5.0212 58.1926C4.72058 53.648 4.98558 49.2247 6.02808 44.7361C7.03933 40.3829 8.26901 35.951 9.78495 31.7368C11.3306 27.4409 14.1128 23.9949 17.4256 20.8561C23.969 14.6562 33.155 9.35781 42.344 8.40676C50.819 7.5295 59.41 7.39049 67.8618 8.57792C75.8728 9.7035 83.0128 13.4409 89.7284 17.7381C97.8078 22.9083 102.493 30.1615 105.03 39.1511C106.245 43.4547 107.375 47.7112 107.309 52.2061C107.243 56.736 106.265 61.1229 104.805 65.4045C104.043 67.6363 103.163 69.8164 102.219 71.9788C101.765 73.018 101.26 74.061 100.952 75.1455C94.7603 72.8867 89.059 69.6869 84.4378 64.8181C84.4315 64.8117 84.4259 64.8049 84.4197 64.7985C86.9243 61.6946 87.7797 57.6191 88.0222 53.7022C88.2515 50.0006 87.7943 46.4138 86.3593 43.0064C85.8353 41.2409 85.0137 39.6239 84.0268 38.0035C81.8656 34.4534 79.2165 30.9018 75.8875 28.3188C70.1256 23.848 62.5184 22.0065 55.2562 22.2607C47.8925 22.5185 40.5153 24.9331 34.8396 29.6072C31.5693 32.3006 28.6725 35.9152 26.7959 39.6686C24.4884 44.2836 24.1903 49.8279 24.5853 54.886C25.039 60.6961 26.5084 66.4985 28.9521 71.8144C29.9556 73.997 31.1856 76.1057 32.2821 78.2485C32.7087 79.0823 33.1478 79.9014 33.6812 80.6258C29.6837 81.4397 26.1034 83.3445 24.0637 87.3214C22.5371 90.2977 22.8771 93.6805 24.5868 96.5135C26.4121 99.5375 29.3496 101.299 32.5187 102.747C37.4178 104.985 42.5437 106.329 47.7956 106.743C48.4793 108.61 50.1356 109.685 51.5028 111.022C52.9281 112.415 54.534 113.626 56.2528 114.651C59.7646 116.746 63.7331 118.076 67.7837 118.718C74.5534 119.791 81.4993 119.047 88.2131 117.678C92.6303 116.777 97.0294 115.592 101.03 113.549C102.796 112.647 104.279 111.681 105.75 110.347C107.221 109.013 108.627 107.587 110.306 106.498C111.578 105.672 113.01 105.049 114.523 104.855C116.144 104.647 117.785 104.723 119.412 104.519C122.274 104.161 125.098 103.446 127.693 102.191C135.157 98.5794 142.131 88.1993 134.774 81.1384C134.069 80.4614 131.755 79.5814 131.422 78.8275C131.033 77.9497 132.466 74.8197 132.725 73.8579C133.645 70.442 134.565 67.0264 135.485 63.6104C136.716 59.0426 137.956 54.3985 137.827 49.676C137.736 46.351 136.966 43.0778 136.004 39.8875C135.078 36.8142 133.948 33.7467 132.034 31.148C129.259 27.3778 124.963 24.8352 120.389 23.6006C117.812 22.9052 115.139 22.6045 112.47 22.5815C109.983 22.5601 107.82 23.2671 105.403 23.4759C101.271 23.833 98.5256 19.7165 95.8847 17.265C93.89 15.4135 91.6597 13.722 89.2387 12.4372C88.875 12.2443 84.5481 10.1806 84.4293 10.3413C87.9365 7.98574 93.3122 7.02489 97.3931 6.10262C109.856 3.28653 123.203 3.40901 134.936 8.87187C148.267 15.0782 154.138 29.2937 156.129 42.8527C157.299 50.8166 157.102 58.9578 155.871 66.9011ZM53.3656 56.9277C53.8646 64.2014 55.5518 72.1705 59.2831 77.9059C59.3334 77.9846 59.3853 78.0626 59.4381 78.1398C59.7247 78.5611 60.019 78.9772 60.315 79.3922C54.4334 81.0771 48.2653 80.5153 42.18 80.1766C40.4553 80.0805 38.6653 80.0609 36.8978 80.1926C35.2796 77.4643 34.1078 74.5 32.7603 71.627C30.7684 67.3803 29.6203 62.6649 28.8915 58.0591C28.155 53.4046 27.719 47.7764 29.0984 43.2048C30.2712 39.3183 33.1396 35.7691 36.0753 32.9828C42.7943 26.6056 53.5675 24.3688 62.9603 26.3518C62.6968 26.5845 62.4472 26.8178 62.2156 27.0352C55.6134 33.2345 53.3184 42.4807 53.2046 51.17C53.1815 52.997 53.229 54.9362 53.3656 56.9277ZM44.9353 84.3124C50.154 84.6315 57.4162 84.9597 61.8997 81.6093C62.3403 82.2334 62.7753 82.8614 63.1847 83.5059C64.4312 85.4696 65.6634 87.4304 67.1206 89.2545C69.4672 92.1918 72.2259 94.5645 75.2565 96.6923C70.3709 99.9352 64.3515 101.561 58.6337 102.573C51.2478 103.88 43.9971 103.478 36.8534 101.157C33.6868 100.128 29.9793 98.8948 27.7628 96.3126C25.664 93.8679 25.2328 90.5677 27.4471 88.0508C31.7037 83.2129 39.149 83.9585 44.9353 84.3124ZM56.7268 106.552C64.449 105.615 72.414 103.545 78.7681 98.9909C82.38 101.175 86.33 102.894 90.4597 103.863C94.9328 104.914 99.274 104.686 103.82 104.701C105.028 104.705 106.242 104.709 107.448 104.768C106.616 105.192 106.006 105.864 105.386 106.607C103.403 108.984 100.758 110.241 97.9272 111.401C92.6243 113.574 86.9687 114.911 81.2425 115.385C75.8134 115.835 70.3143 115.511 64.9862 114.389C62.9087 113.951 60.97 113.525 59.1728 112.36C56.6575 110.729 54.1487 109.089 52.1181 106.875C53.6472 106.845 55.184 106.739 56.7268 106.552ZM106.111 100.843C101.737 100.764 97.3422 101.238 92.995 100.575C86.5315 99.5898 80.3125 96.6415 75.3868 92.4211C71.1728 88.8105 67.9506 84.4576 65.1843 79.7299C62.3593 74.9015 59.9465 69.8128 58.3509 64.4614C57.8259 62.701 57.3903 60.9147 57.0584 59.1097C56.1146 53.9769 56.0687 48.6549 57.1043 43.5319C57.6225 40.9693 58.415 38.457 59.5087 36.0732C60.455 34.0113 61.469 31.8425 63.3706 30.52C64.1178 30.0004 64.75 29.3372 65.4622 28.7719C67.824 26.898 69.895 28.5619 72.2434 30.087C75.6771 32.3171 78.3322 35.5744 80.5343 38.9518C80.0943 39.0877 79.6415 39.3054 79.1784 39.6153C76.3262 41.5235 75.2737 45.1363 74.6431 48.2859C73.9234 51.8813 74.0759 55.3783 75.5081 58.801C77.1415 62.705 79.7825 66.1813 82.879 69.0935C89.5715 75.3886 98.2306 78.9353 107.157 81.0514C112.286 82.2676 117.386 81.4872 122.575 81.278C126.464 81.1212 131.191 81.6194 133.188 85.408C135.358 89.5242 132.012 94.1466 128.868 96.7346C125.921 99.1602 122.097 100.31 118.322 100.706C114.267 101.132 110.178 100.916 106.111 100.843ZM81.7434 40.9332C82.6084 42.4669 83.3293 44.0386 83.925 45.7255C83.9671 45.8449 84.009 45.9664 84.0512 46.0871C84.8175 49.9804 84.5771 54.1284 83.5962 57.9486C83.234 59.3589 82.7403 60.7065 82.0725 61.9815C78.3353 56.856 76.3959 50.4577 78.8068 44.2729C79.1662 43.3503 80.3562 40.7923 81.7434 40.9332ZM126.958 77.8652C125.808 77.7329 124.643 77.6842 123.493 77.6848C118.372 77.6882 113.238 78.6368 108.197 77.355C106.801 77.0001 105.425 76.6137 104.059 76.1624C108.426 68.3259 111.546 59.267 111.24 50.252C111.082 45.5978 109.847 40.916 108.44 36.4853C107.362 33.0918 105.678 29.9793 103.934 26.891C104.685 26.3646 106.403 26.2743 107.075 26.2017C108.9 26.0039 110.767 26.0024 112.601 26.0575C116.364 26.1705 120.171 27.1589 123.812 29.1348C128.239 31.5375 130.281 35.0456 131.708 39.6922C132.608 42.6203 133.395 45.6008 133.653 48.6481C134.096 53.8875 132.951 59.0763 131.55 64.1013C131.261 65.139 129.434 73.1959 127.995 76.4802C127.609 77.3615 127.251 77.8988 126.958 77.8652Z" fill="#E59656"/>
</svg>
