<svg width="226" height="197" viewBox="0 0 226 197" fill="none" xmlns="http://www.w3.org/2000/svg">
<path d="M225.312 71.5553C224.6 51.2936 218.977 28.369 202.836 14.4384C193.62 6.48464 181.43 2.51122 169.434 0.824818C155.624 -1.11622 141.83 0.489606 128.504 4.37255C123.178 5.92408 116.544 7.27226 112.412 11.1772C101.365 5.88186 89.0069 4.40314 76.7369 4.90725C69.7219 5.1955 62.5539 5.11622 55.6022 6.12788C48.8669 7.1081 42.2855 9.79927 36.3137 12.9428C24.6686 19.0723 12.9791 28.6146 8.0509 40.9386C5.54325 47.2094 3.79246 54.058 2.26377 60.6153C0.641404 67.5754 -0.0794031 74.6205 0.312445 81.7552C0.714408 89.0704 1.23467 96.5415 2.13843 103.813C2.97622 110.552 4.2969 117.44 6.98134 123.724C12.3133 136.206 19.4501 147.372 27.5004 158.289C31.1928 163.297 34.2911 168.437 38.7677 172.918C43.2768 177.431 48.3836 181.359 53.8444 184.708C59.1838 187.982 64.8838 190.708 70.8403 192.724C77.2801 194.903 83.5901 195.569 90.361 196.135C104.284 197.298 118.413 197.585 132.211 195.1C160.578 189.992 186.168 173.099 203.67 150.891C211.901 140.447 216.683 125.846 219.953 113.181C223.456 99.6088 225.806 85.5924 225.312 71.5553ZM218.211 93.6022C216.195 106.6 212.922 119.735 207.549 131.815C202.409 143.37 195.542 153.639 185.823 161.965C170.467 175.119 152.206 185.66 132.003 189.635C120.567 191.885 108.791 191.954 97.15 191.237C88.495 190.703 79.8088 189.728 71.5171 187.24C57.4748 183.027 47.0629 173.92 37.8925 163.019C30.8106 154.599 24.0538 145.85 18.7759 136.243C12.6638 125.118 8.63405 112.907 6.86656 100.395C5.96456 94.0089 6.34014 87.7269 5.91838 81.348C5.49531 74.9531 5.86825 68.7289 7.33537 62.4128C8.75851 56.2873 10.4891 50.0509 12.6225 44.121C14.7976 38.076 18.713 33.227 23.3752 28.8102C32.5839 20.0861 45.5113 12.6305 58.4432 11.2922C70.3702 10.0578 82.4603 9.86217 94.3547 11.5331C105.629 13.1169 115.677 18.376 125.128 24.4228C136.498 31.6979 143.092 41.9042 146.662 54.5539C148.371 60.6097 149.962 66.5991 149.869 72.9242C149.776 79.2984 148.4 85.4714 146.345 91.4961C145.273 94.6367 144.035 97.7044 142.706 100.747C142.067 102.21 141.356 103.677 140.922 105.203C132.209 102.025 124.186 97.5222 117.682 90.671C117.673 90.662 117.665 90.6525 117.657 90.6434C121.182 86.2758 122.385 80.541 122.727 75.0294C123.049 69.8207 122.406 64.7735 120.386 59.9789C119.649 57.4945 118.493 55.2191 117.104 52.939C114.062 47.9436 110.334 42.946 105.649 39.3112C97.5405 33.0202 86.8348 30.429 76.6147 30.7866C66.2516 31.1494 55.8696 34.5472 47.8822 41.1243C43.2799 44.9142 39.2031 50.0005 36.5621 55.2821C33.3148 61.776 32.8952 69.5777 33.4511 76.6951C34.0897 84.8707 36.1575 93.0356 39.5967 100.516C41.0088 103.587 42.7398 106.554 44.283 109.57C44.8833 110.743 45.5012 111.895 46.2519 112.915C40.6262 114.06 35.5876 116.74 32.7171 122.336C30.5688 126.524 31.0472 131.285 33.4533 135.271C36.0221 139.526 40.1561 142.005 44.6159 144.042C51.5104 147.192 58.7242 149.083 66.1152 149.665C67.0775 152.293 69.4084 153.805 71.3324 155.686C73.3383 157.647 75.5983 159.35 78.0171 160.793C82.9594 163.742 88.5443 165.613 94.2448 166.516C103.772 168.026 113.547 166.978 122.995 165.052C129.212 163.785 135.402 162.118 141.033 159.242C143.518 157.973 145.605 156.614 147.675 154.737C149.746 152.86 151.724 150.854 154.087 149.32C155.878 148.158 157.893 147.282 160.022 147.009C162.302 146.716 164.612 146.823 166.901 146.536C170.93 146.032 174.903 145.027 178.556 143.26C189.061 138.178 198.875 123.572 188.521 113.636C187.529 112.683 184.273 111.445 183.803 110.384C183.256 109.149 185.273 104.745 185.637 103.391C186.932 98.5847 188.227 93.7784 189.522 88.9717C191.253 82.5441 192.998 76.0092 192.817 69.364C192.689 64.6852 191.605 60.0793 190.252 55.5901C188.949 51.2655 187.358 46.9492 184.665 43.2924C180.759 37.9872 174.714 34.4093 168.277 32.6721C164.65 31.6936 160.888 31.2705 157.132 31.2382C153.632 31.208 150.588 32.2029 147.187 32.4967C141.372 32.9991 137.508 27.2066 133.792 23.7571C130.984 21.1517 127.846 18.7716 124.439 16.9637C123.927 16.6922 117.837 13.7882 117.67 14.0144C122.606 10.6998 130.171 9.34772 135.914 8.04996C153.454 4.08731 172.237 4.25966 188.749 11.9467C207.51 20.6799 215.772 40.6831 218.574 59.7626C220.22 70.9689 219.944 82.4247 218.211 93.6022ZM73.954 79.5681C74.6563 89.8032 77.0307 101.017 82.2817 109.087C82.3525 109.198 82.4255 109.308 82.4999 109.417C82.9032 110.009 83.3174 110.595 83.7339 111.179C75.4567 113.55 66.7762 112.759 58.2123 112.283C55.7851 112.147 53.2661 112.12 50.7786 112.305C48.5014 108.466 46.8522 104.295 44.9559 100.252C42.1527 94.2765 40.5369 87.6412 39.5113 81.1601C38.4748 74.6106 37.8613 66.6909 39.8025 60.2581C41.453 54.7891 45.4898 49.795 49.6211 45.8741C59.0769 36.9006 74.2381 33.7531 87.4567 36.5434C87.0859 36.8708 86.7346 37.1992 86.4087 37.5051C77.1173 46.2283 73.8876 59.2391 73.7275 71.4661C73.6949 74.0371 73.7618 76.7658 73.954 79.5681ZM62.0899 118.102C69.4343 118.551 79.6545 119.013 85.9641 114.299C86.5842 115.177 87.1963 116.06 87.7724 116.967C89.5267 119.731 91.2608 122.49 93.3115 125.056C96.6139 129.19 100.496 132.529 104.761 135.523C97.8857 140.086 89.4146 142.373 81.3679 143.797C70.9735 145.637 60.7697 145.071 50.7162 141.805C46.2598 140.357 41.0422 138.622 37.9228 134.988C34.9692 131.548 34.3623 126.904 37.4787 123.363C43.469 116.555 53.9468 117.604 62.0899 118.102ZM78.6843 149.397C89.5518 148.078 100.761 145.166 109.703 138.757C114.786 141.831 120.345 144.249 126.157 145.613C132.452 147.091 138.561 146.77 144.959 146.791C146.659 146.797 148.367 146.803 150.065 146.887C148.894 147.483 148.035 148.429 147.163 149.474C144.372 152.819 140.65 154.587 136.666 156.22C129.203 159.278 121.244 161.159 113.185 161.826C105.545 162.46 97.8061 162.004 90.3078 160.424C87.3841 159.809 84.6557 159.209 82.1265 157.569C78.5867 155.274 75.0561 152.966 72.1983 149.85C74.3502 149.81 76.5131 149.66 78.6843 149.397ZM148.183 141.363C142.027 141.252 135.843 141.92 129.725 140.987C120.629 139.6 111.877 135.451 104.945 129.512C99.0142 124.432 94.4796 118.307 90.5866 111.654C86.611 104.86 83.2154 97.6992 80.9699 90.1691C80.231 87.692 79.618 85.1784 79.1509 82.6384C77.8228 75.4159 77.7581 67.927 79.2156 60.7183C79.9447 57.1124 81.06 53.5771 82.5993 50.2229C83.9309 47.3214 85.358 44.2696 88.0341 42.4087C89.0856 41.6775 89.9753 40.7443 90.9776 39.9489C94.3015 37.312 97.2159 39.6534 100.521 41.7995C105.353 44.9375 109.09 49.521 112.189 54.2734C111.57 54.4647 110.932 54.7711 110.281 55.2071C106.267 57.8922 104.786 62.976 103.898 67.4078C102.885 72.467 103.1 77.3879 105.115 82.2041C107.414 87.6976 111.131 92.5892 115.489 96.6872C124.907 105.545 137.093 110.536 149.655 113.514C156.874 115.225 164.051 114.127 171.354 113.832C176.826 113.612 183.478 114.313 186.289 119.644C189.343 125.436 184.634 131.94 180.209 135.582C176.061 138.995 170.681 140.613 165.368 141.17C159.662 141.77 153.906 141.466 148.183 141.363ZM113.89 57.0615C115.108 59.2197 116.122 61.4313 116.961 63.805C117.02 63.973 117.079 64.1441 117.138 64.3138C118.217 69.7922 117.878 75.6291 116.498 81.0046C115.988 82.9891 115.293 84.8854 114.353 86.6795C109.094 79.4673 106.365 70.464 109.758 61.7609C110.263 60.4628 111.938 56.8633 113.89 57.0615ZM177.522 109.03C175.904 108.844 174.263 108.775 172.645 108.776C165.438 108.781 158.214 110.116 151.118 108.312C149.155 107.813 147.218 107.269 145.296 106.634C151.441 95.607 155.832 82.8599 155.402 70.1744C155.18 63.6253 153.44 57.0374 151.46 50.8028C149.944 46.0275 147.574 41.6478 145.12 37.3021C146.176 36.5615 148.594 36.4344 149.539 36.3323C152.109 36.0539 154.735 36.0518 157.316 36.1293C162.612 36.2883 167.97 37.6791 173.094 40.4595C179.324 43.8405 182.197 48.7769 184.206 55.3152C185.472 59.4356 186.58 63.6296 186.943 67.9175C187.567 75.2901 185.956 82.5915 183.984 89.6624C183.576 91.1226 181.006 102.46 178.981 107.081C178.438 108.321 177.934 109.077 177.522 109.03Z" fill="#E59656"/>
</svg>
